<?xml version="1.0" standalone="no"?>
<!DOCTYPE svg PUBLIC "-//W3C//DTD SVG 20010904//EN"
 "http://www.w3.org/TR/2001/REC-SVG-20010904/DTD/svg10.dtd">
<svg version="1.0" xmlns="http://www.w3.org/2000/svg"
 width="700.000000pt" height="700.000000pt" viewBox="0 0 700.000000 700.000000"
 preserveAspectRatio="xMidYMid meet">
<metadata>
Created by potrace 1.11, written by Peter Selinger 2001-2013
</metadata>
<g transform="translate(0.000000,700.000000) scale(0.100000,-0.100000)"
fill="#000000" stroke="none">
<path d="M0 3500 l0 -3500 3500 0 3500 0 0 3500 0 3500 -3500 0 -3500 0 0
-3500z m3325 2795 c112 -13 285 -78 285 -109 0 -7 40 -21 93 -34 50 -12 142
-36 202 -52 64 -17 136 -29 173 -30 59 0 63 -1 57 -20 -6 -18 -2 -20 32 -20
21 0 48 7 59 14 27 19 144 4 183 -22 14 -10 55 -33 91 -49 68 -33 225 -171
225 -199 0 -22 87 -87 96 -72 6 9 10 8 14 -5 4 -9 46 -51 93 -94 48 -42 98
-91 112 -107 14 -17 32 -32 40 -34 23 -5 207 -185 206 -201 -1 -8 12 -18 28
-22 39 -11 117 -88 240 -239 183 -225 198 -309 216 -1188 0 -13 -3 -28 -6 -34
-4 -5 -8 -29 -9 -51 -2 -32 -32 -427 -35 -457 0 -3 -5 2 -11 10 -8 11 -9 3 -5
-31 3 -29 1 -50 -7 -58 -9 -9 -9 -14 2 -20 19 -12 10 -78 -41 -281 -41 -168
-52 -280 -29 -303 18 -18 13 -65 -9 -87 -19 -19 -19 -22 -4 -51 11 -23 14 -44
9 -76 -5 -36 -3 -47 14 -61 19 -16 19 -23 11 -152 -10 -157 -16 -180 -68 -269
-22 -36 -48 -86 -60 -111 -39 -88 -383 -461 -607 -660 -189 -167 -390 -319
-530 -402 -33 -20 -86 -52 -119 -71 -32 -20 -94 -48 -138 -63 -75 -25 -88 -26
-216 -21 -151 5 -471 39 -598 62 -122 23 -368 135 -468 214 -34 28 -78 49
-150 71 -149 48 -222 86 -292 155 -69 67 -229 302 -211 308 7 2 -2 17 -20 36
-18 18 -37 30 -42 26 -5 -3 -40 38 -77 91 -196 281 -398 690 -488 988 -43 142
-40 134 -135 271 -116 166 -118 169 -150 326 -55 260 -72 413 -78 682 -3 139
-2 247 3 247 12 0 50 -57 64 -95 13 -35 33 -143 61 -338 24 -169 41 -241 77
-321 19 -42 23 -61 14 -64 -31 -10 4 -91 116 -265 131 -202 176 -311 171 -416
-2 -40 3 -55 32 -96 25 -35 30 -49 20 -53 -7 -2 -9 -7 -5 -11 25 -17 62 -89
53 -102 -15 -24 -10 -33 31 -57 28 -16 49 -41 76 -90 20 -37 46 -83 58 -102
11 -19 21 -38 21 -42 0 -3 25 -36 55 -73 105 -126 279 -380 264 -383 -17 -4
-19 -22 -2 -22 15 0 78 -60 78 -75 0 -6 18 -29 40 -50 22 -22 53 -57 68 -80
15 -22 33 -44 40 -48 7 -5 10 -12 7 -17 -8 -13 51 -70 72 -70 10 0 23 -4 29
-9 5 -5 36 -23 69 -40 33 -17 54 -30 48 -31 -30 -1 -9 -20 40 -35 28 -10 138
-53 242 -96 176 -72 321 -119 368 -119 11 0 35 -9 53 -20 24 -15 49 -21 91
-20 32 0 72 0 88 -2 17 -1 39 0 50 3 13 2 19 -1 17 -10 -2 -11 8 -12 53 -6 32
4 61 2 68 -3 7 -5 38 -12 70 -15 32 -3 64 -11 72 -17 10 -8 18 -6 33 11 11 11
26 18 32 14 6 -4 43 18 83 47 40 30 93 65 119 78 25 12 68 39 95 60 39 29 56
36 81 32 25 -3 33 0 38 14 4 11 18 31 32 46 13 14 21 31 18 37 -4 5 6 17 22
25 16 8 50 31 76 50 45 35 46 35 58 16 7 -11 19 -20 26 -20 8 0 10 -5 6 -12
-5 -7 14 6 41 29 37 31 55 56 69 95 25 71 46 102 59 89 19 -19 26 -12 42 44
11 35 22 55 31 55 8 0 19 12 25 28 9 26 76 82 98 82 6 0 11 -8 12 -17 0 -17 1
-16 12 1 7 10 27 36 45 58 33 41 40 64 22 70 -6 2 2 20 17 41 14 20 29 33 32
28 4 -5 24 24 45 64 25 47 43 72 52 68 8 -3 27 15 46 43 18 26 54 76 80 111
l47 64 -19 67 c-10 37 -23 99 -28 137 -6 39 -20 87 -32 108 -18 30 -20 41 -10
47 8 5 10 20 6 44 -3 20 -9 52 -12 71 -3 19 -10 38 -16 41 -13 8 -38 -15 -38
-35 0 -13 2 -13 9 -2 10 15 15 8 25 -31 5 -21 2 -31 -14 -40 -11 -7 -20 -20
-20 -29 0 -8 -15 -29 -32 -45 -18 -16 -43 -43 -56 -59 l-23 -30 5 43 c4 43 4
43 -17 29 -16 -11 -22 -25 -22 -53 0 -25 -4 -38 -12 -37 -6 1 -14 -11 -18 -27
-4 -17 -24 -43 -48 -63 -60 -49 -138 -97 -149 -91 -4 3 -11 -2 -14 -10 -12
-31 -225 -166 -262 -166 -12 0 -66 -22 -120 -49 -54 -27 -124 -57 -156 -66
-55 -16 -58 -16 -71 2 -13 17 -14 16 -35 -10 -16 -20 -30 -27 -55 -27 -19 0
-58 -9 -87 -21 -29 -12 -64 -23 -78 -26 -50 -11 -138 -5 -173 12 -35 16 -39
16 -74 0 -54 -26 -113 -30 -175 -12 -29 9 -93 19 -142 22 -107 8 -316 58 -333
81 -6 9 -31 20 -55 25 -65 14 -112 36 -241 113 -106 64 -116 72 -100 84 17 13
17 14 -2 28 -12 10 -32 14 -51 11 -25 -4 -38 1 -67 28 -21 19 -37 41 -37 50 0
8 -16 23 -34 32 -38 18 -143 140 -138 161 4 18 -47 82 -62 76 -6 -2 -20 10
-29 28 -9 18 -35 62 -57 97 -22 36 -40 73 -40 84 0 11 -7 25 -15 31 -16 12
-66 164 -68 206 -1 14 -7 31 -13 37 -24 25 -34 148 -30 363 2 118 9 238 14
265 31 148 89 315 134 381 15 23 28 55 28 71 0 17 9 38 23 51 12 12 45 49 72
83 69 86 176 199 199 211 13 7 16 7 12 -1 -4 -6 -3 -11 2 -11 5 0 15 11 22 25
7 14 19 25 27 25 7 0 13 6 13 13 0 12 27 29 208 135 177 102 287 135 314 93
11 -18 14 -18 41 -4 24 12 34 12 59 2 26 -11 31 -10 44 9 14 20 17 20 54 7 50
-18 97 -19 232 -6 101 10 111 10 195 -15 260 -75 515 -254 649 -456 163 -247
215 -596 134 -903 -56 -211 -220 -459 -338 -512 -49 -22 -169 -106 -202 -143
-34 -37 -301 -109 -407 -110 -36 0 -41 3 -36 17 5 13 2 15 -11 10 -10 -4 -24
-7 -31 -7 -8 0 -21 -7 -30 -16 -15 -15 -23 -15 -103 -1 -342 63 -622 408 -622
769 0 91 4 109 51 256 l52 157 71 70 c127 126 280 187 466 187 108 0 194 -16
285 -51 l50 -19 -40 -17 c-22 -10 -85 -21 -141 -25 -247 -20 -341 -45 -398
-106 -14 -16 -36 -29 -49 -29 -43 0 -147 -249 -192 -457 -16 -77 -16 -78 5
-109 12 -16 20 -33 17 -36 -4 -3 5 -20 18 -37 16 -21 22 -39 18 -54 -4 -17 1
-24 23 -32 16 -6 59 -43 96 -81 93 -96 205 -146 368 -165 44 -5 60 -11 60 -22
0 -11 3 -12 14 -3 8 7 34 14 58 16 24 2 61 10 83 19 22 8 67 17 100 21 33 3
67 13 76 21 8 8 23 14 33 14 9 0 28 7 41 16 15 10 25 12 25 5 0 -26 31 -6 106
72 94 95 149 168 193 254 17 34 39 68 50 75 12 8 22 29 24 49 2 19 7 41 12 49
5 8 8 27 7 43 -2 19 1 26 9 21 9 -5 10 7 7 45 -3 28 -2 51 1 51 3 0 7 18 8 40
0 22 6 47 13 55 10 12 9 16 -4 21 -10 4 -15 13 -12 20 3 7 -1 28 -8 46 -8 18
-19 64 -25 102 -7 38 -19 83 -28 99 -12 25 -13 34 -2 54 12 22 10 26 -17 48
-16 13 -35 24 -42 25 -7 0 -20 17 -29 38 -8 20 -21 44 -29 53 -12 14 -11 17
11 29 14 7 25 21 25 31 0 21 -55 69 -79 69 -10 0 -32 5 -50 11 -25 9 -30 15
-25 32 6 18 3 19 -40 15 -35 -4 -46 -2 -46 8 0 8 -8 14 -19 14 -29 0 -73 39
-66 60 4 14 -4 20 -41 30 -36 10 -48 10 -53 1 -5 -8 -18 -10 -34 -6 -15 4 -24
11 -21 16 3 5 -22 9 -56 9 -36 0 -59 4 -55 9 6 11 -34 20 -115 25 -30 2 -62 6
-72 10 -9 4 -31 5 -50 2 -18 -4 -64 -9 -103 -12 -51 -5 -76 -12 -93 -28 -19
-16 -25 -18 -31 -7 -9 13 -36 12 -73 -4 -13 -5 -18 -3 -18 9 0 26 -27 18 -57
-18 -37 -44 -72 -56 -80 -27 -6 25 -23 18 -23 -9 0 -35 -90 -100 -139 -100 -9
0 -25 -16 -36 -35 -11 -23 -24 -34 -33 -30 -7 3 -20 -2 -28 -10 -9 -8 -26 -15
-40 -15 -29 0 -42 -24 -24 -45 9 -11 9 -15 1 -15 -7 0 -19 -16 -27 -35 -15
-36 -34 -47 -34 -19 0 9 -7 14 -17 12 -20 -4 -40 -78 -24 -88 6 -3 -1 -18 -15
-35 -14 -17 -23 -37 -21 -47 3 -10 2 -20 -3 -23 -4 -3 -18 -26 -30 -52 -12
-27 -38 -63 -57 -80 -19 -18 -31 -38 -27 -44 4 -8 9 -7 16 2 8 11 9 11 5 -1
-2 -8 -10 -16 -18 -16 -8 -1 -17 -2 -22 -3 -4 0 -1 -14 8 -31 17 -33 20 -70 5
-70 -6 0 -9 -15 -8 -32 3 -30 0 -33 -26 -36 -25 -3 -28 -6 -22 -33 3 -16 2
-29 -2 -29 -4 0 -8 -17 -9 -38 -2 -33 -1 -35 11 -19 7 9 15 17 18 17 2 0 4
-30 4 -67 -1 -36 -2 -59 -4 -50 -2 10 -8 15 -13 12 -16 -11 -10 -32 14 -44 12
-6 14 -9 5 -7 -30 9 -31 -13 -4 -55 21 -31 25 -46 20 -77 -4 -25 0 -52 11 -78
16 -39 16 -39 -10 -60 -26 -20 -26 -20 -6 -38 11 -10 27 -16 35 -13 16 6 56
-79 56 -118 0 -13 7 -25 15 -29 8 -3 15 -10 15 -15 0 -6 18 -38 40 -72 38 -59
52 -109 30 -109 -5 0 -10 -7 -10 -15 0 -20 27 -19 38 1 7 13 15 7 42 -35 18
-28 37 -51 41 -51 4 0 6 -8 5 -17 0 -11 13 -25 34 -35 19 -10 35 -24 35 -30 0
-7 17 -21 38 -30 24 -11 37 -24 37 -37 0 -12 8 -21 22 -23 12 -2 29 -18 40
-39 15 -30 26 -38 59 -43 52 -8 229 -76 229 -87 0 -5 7 -9 15 -9 12 0 14 -7 9
-27 -7 -25 -5 -26 23 -20 16 3 33 7 39 8 27 5 46 -2 40 -16 -3 -8 -1 -15 4
-15 20 0 9 -20 -20 -35 -31 -16 -40 -40 -17 -48 8 -3 6 -10 -8 -21 -16 -12
-17 -15 -4 -16 19 0 52 34 42 43 -3 4 1 7 9 7 9 0 21 6 27 13 6 8 23 12 41 9
22 -3 35 1 45 14 12 16 16 17 24 5 10 -16 31 -6 31 15 0 16 18 18 39 5 10 -7
11 -13 1 -31 -17 -32 -4 -37 27 -9 19 17 25 19 20 7 -5 -14 0 -16 31 -14 20 2
40 -1 44 -7 4 -7 30 -13 57 -14 46 -1 50 1 48 19 -2 17 4 21 28 22 17 1 35 4
41 8 6 4 16 -3 22 -17 9 -19 9 -25 -1 -25 -8 0 -7 -4 3 -10 23 -15 27 -12 39
20 11 33 32 42 24 11 -3 -13 3 -23 18 -31 19 -11 25 -10 40 8 9 12 19 18 23
15 3 -4 6 1 6 10 0 22 8 21 48 -3 26 -16 31 -24 23 -37 -12 -22 7 -65 28 -61
9 2 17 14 18 28 2 32 26 100 35 100 3 0 16 -12 27 -26 24 -31 53 -26 51 8 -5
55 18 68 38 23 15 -33 16 -33 -9 -37 -18 -3 -19 -5 -6 -23 13 -17 18 -18 41
-7 30 13 34 29 9 35 -16 3 -16 5 2 11 11 5 26 10 33 12 19 5 14 21 -9 27 -24
6 -21 32 4 32 9 0 23 9 31 20 14 19 16 19 32 3 16 -16 16 -18 -9 -29 -15 -7
-27 -16 -27 -21 0 -11 14 -10 27 3 13 13 106 -33 127 -62 11 -16 15 -17 24 -6
7 8 7 18 2 27 -14 22 -12 28 12 35 11 4 32 19 44 32 20 21 25 23 30 10 5 -13
15 -10 67 19 34 19 61 38 60 43 -4 15 25 33 39 25 40 -25 41 -25 200 133 54
52 59 56 83 45 33 -15 38 -15 32 1 -3 8 7 21 24 31 16 9 29 21 29 25 0 12 39
21 45 10 3 -4 12 -6 20 -3 16 7 39 64 24 64 -18 0 -9 23 27 67 19 24 40 41 45
38 5 -4 9 -2 9 3 0 5 9 12 19 15 15 3 21 -1 24 -17 2 -11 3 -10 1 4 -2 14 -8
52 -14 85 -8 45 -8 70 0 99 10 33 15 37 36 33 20 -3 24 -1 19 12 -19 50 -17
84 17 226 6 28 11 81 9 118 -1 46 1 67 9 62 6 -4 10 6 10 25 0 17 9 49 20 71
21 40 19 79 -3 79 -8 0 -13 24 -14 72 -2 80 3 97 22 72 12 -17 13 -16 23 3 8
14 8 32 -2 64 -7 24 -11 50 -9 57 3 8 -1 10 -13 5 -15 -6 -16 0 -10 65 4 40 4
72 -1 72 -13 0 1 262 15 288 8 13 10 32 6 45 -7 21 -7 21 -15 2 -7 -18 -8 -18
-8 -2 -1 11 8 21 19 24 11 3 20 7 20 10 0 2 -15 31 -32 63 -28 51 -31 62 -21
79 11 17 10 27 -4 55 -13 29 -14 38 -3 51 7 8 19 15 26 15 17 0 18 24 3 51 -6
12 -7 28 -3 37 4 9 6 22 4 27 -1 6 -2 25 -1 43 1 17 -3 32 -9 32 -5 0 -10 -9
-10 -20 0 -11 -4 -20 -9 -20 -12 0 -21 40 -15 67 4 16 1 25 -10 29 -14 5 -14
9 -4 22 11 13 9 15 -15 10 -15 -3 -30 -1 -33 3 -3 5 2 9 11 9 23 0 2 36 -26
45 -42 14 -107 65 -119 96 -12 28 -41 53 -117 99 -21 13 -24 20 -19 51 5 31 2
38 -18 49 -14 7 -36 10 -49 6 -21 -5 -37 6 -108 74 -45 44 -86 80 -91 80 -11
0 -207 190 -219 212 -6 12 -6 24 0 36 7 13 6 23 -1 30 -17 17 -28 15 -36 -9
-8 -20 -13 -17 -72 40 -36 34 -68 61 -72 61 -5 0 -8 9 -8 19 0 22 -47 64 -61
55 -5 -3 -9 2 -9 10 0 9 -7 16 -15 16 -8 0 -15 4 -15 10 0 6 -17 7 -43 4 -34
-5 -45 -2 -61 15 -15 16 -23 18 -38 10 -21 -11 -74 2 -116 27 -17 11 -27 12
-43 3 -30 -15 -185 -12 -265 6 -96 22 -185 56 -178 67 4 5 -4 8 -17 6 -20 -2
-24 1 -22 24 1 19 -4 28 -20 32 -35 9 -89 7 -82 -3 3 -5 -13 -2 -35 7 -23 10
-38 22 -35 29 2 7 -4 17 -13 22 -15 8 -14 11 8 19 14 5 34 11 45 13 24 5 34
39 11 39 -9 0 -16 5 -16 10 0 6 10 10 22 10 16 0 19 3 11 11 -16 16 -64 2 -70
-19 -7 -29 -49 -43 -81 -26 -38 19 -64 18 -60 -3 2 -12 -4 -18 -17 -18 -13 0
-20 -6 -19 -17 1 -13 -5 -18 -21 -18 -13 0 -31 -3 -40 -7 -14 -5 -16 -2 -10
18 11 36 11 41 0 45 -5 2 -22 -13 -37 -33 -20 -25 -28 -31 -28 -19 0 13 -5 16
-17 11 -10 -4 -27 -8 -38 -9 -11 0 -23 -5 -27 -10 -4 -6 -16 -5 -32 2 -20 9
-27 8 -37 -4 -7 -8 -18 -13 -25 -10 -15 6 -62 -29 -52 -39 3 -4 17 -1 30 5 17
9 15 4 -10 -19 -18 -17 -37 -31 -41 -31 -5 0 -11 -10 -14 -21 -4 -15 -11 -20
-22 -15 -9 3 -23 6 -31 6 -8 0 -11 6 -7 16 5 14 3 15 -12 6 -11 -5 -24 -29
-30 -53 -5 -23 -16 -45 -24 -47 -9 -3 -11 2 -6 17 5 18 2 21 -19 21 -33 0 -70
-36 -63 -61 4 -16 2 -19 -15 -13 -16 5 -19 3 -14 -14 6 -17 -2 -21 -59 -36
-36 -9 -70 -14 -75 -11 -6 4 -2 18 8 33 10 15 12 23 4 18 -8 -5 -20 0 -31 13
-16 19 -19 19 -40 5 -21 -15 -21 -17 -5 -29 16 -11 14 -17 -27 -69 -24 -31
-47 -56 -50 -56 -3 0 -18 9 -32 20 -42 33 -87 22 -94 -22 -3 -21 -27 -48 -43
-48 -4 0 -12 11 -18 25 -12 26 -27 31 -51 16 -16 -10 -6 -31 15 -31 21 0 17
-21 -5 -27 -10 -2 -28 -17 -39 -33 -16 -22 -26 -26 -48 -22 l-28 5 39 33 c22
18 37 36 34 39 -4 3 -21 -6 -38 -21 -23 -19 -35 -23 -44 -15 -8 6 -35 13 -61
15 -27 3 -56 12 -65 20 -13 12 -20 13 -29 4 -17 -17 -15 -35 4 -42 13 -5 12
-11 -10 -37 -14 -17 -29 -42 -32 -55 -5 -18 -10 -22 -18 -14 -9 7 -18 -4 -34
-43 -37 -91 -51 -137 -42 -137 6 0 10 -13 10 -30 0 -27 -3 -30 -30 -30 -16 0
-30 -2 -30 -5 0 -3 11 -28 25 -55 39 -78 50 -143 31 -190 -8 -21 -20 -76 -25
-122 -7 -57 -16 -86 -27 -93 -37 -23 -49 -36 -38 -41 9 -4 8 -17 -2 -51 -8
-25 -14 -59 -14 -74 0 -21 -4 -27 -15 -23 -8 4 -15 1 -15 -5 0 -7 -8 -11 -17
-9 -18 3 -36 -25 -49 -76 -5 -21 -4 -27 5 -22 20 13 12 -15 -26 -85 -21 -38
-43 -69 -50 -69 -7 0 -13 -9 -13 -19 0 -10 -7 -21 -15 -25 -18 -6 -29 28 -22
70 4 28 5 28 12 7 4 -13 10 -23 13 -23 15 0 42 36 41 54 0 20 -1 20 -8 2 -9
-24 -16 -13 -25 36 -5 30 -3 41 14 58 11 11 20 27 20 37 0 9 12 37 27 62 15
25 30 66 33 91 l7 45 20 -44 21 -45 10 35 c7 25 6 39 -4 54 -26 37 -36 68 -24
75 8 5 9 18 2 43 -8 28 -6 52 9 109 24 87 30 207 11 226 -12 14 -15 46 -12
137 3 87 84 286 125 307 11 6 49 38 84 71 36 33 96 80 134 104 90 59 273 126
253 94 -13 -21 26 -18 49 3 14 13 44 26 66 30 49 8 107 36 133 65 11 12 23 21
29 21 5 0 25 14 44 30 43 38 144 89 185 94 20 2 39 13 48 27 8 12 35 44 61 69
48 49 126 80 203 80 20 0 59 9 85 21 27 11 79 24 117 29 68 8 81 7 199 -5z
m-12 -252 c-7 -2 -19 -2 -25 0 -7 3 -2 5 12 5 14 0 19 -2 13 -5z m-1448 -535
c-1 -36 -34 -95 -56 -101 -12 -3 -19 0 -19 9 0 8 4 14 10 14 13 0 43 47 46 73
3 28 3 27 12 27 4 0 8 -10 7 -22z m-144 -300 c-11 -11 -25 -18 -31 -16 -6 2
-3 12 10 26 12 12 25 20 30 17 6 -3 1 -15 -9 -27z m-426 -1148 c3 -5 1 -10 -4
-10 -6 0 -11 5 -11 10 0 6 2 10 4 10 3 0 8 -4 11 -10z m3485 -1802 c0 -5 -2
-8 -5 -8 -3 0 -12 0 -20 0 -8 0 -15 4 -15 9 0 4 9 8 20 7 11 0 20 -4 20 -8z
m-97 -63 c-3 -9 -8 -14 -10 -11 -3 3 -2 9 2 15 9 16 15 13 8 -4z m-77 -22 c-3
-4 -16 -8 -28 -10 -28 -4 -48 -21 -59 -50 -5 -13 -14 -23 -20 -23 -8 0 -9 4 0
13 6 8 8 17 4 21 -12 12 51 55 81 56 16 0 26 -3 22 -7z"/>
<path d="M2097 5673 c-14 -13 -6 -31 16 -35 36 -7 48 1 37 23 -10 19 -40 26
-53 12z"/>
</g>
</svg>
