<svg width="65" height="65" xmlns="http://www.w3.org/2000/svg">
 <g>
  <title>background</title>
  <rect fill="none" id="canvas_background" height="67" width="67" y="-1" x="-1"/>
 </g>
 <g>
  <title>Layer 1</title>
  <rect id="svg_12" height="65" width="65" y="0" x="0" fill-opacity="null" stroke-opacity="null" stroke-width="null" stroke="null" fill="#222"/>
  <path id="svg_1" d="m2,0l0,65l60,0l-90,0l30,-65z" fill="#222"/>
  <path id="svg_2" d="m301.914001,0.23l0,65.125003l-299.857002,0l299.857002,-65.125003z" clip-rule="evenodd" fill="none"/>
  <path id="svg_3" d="m50.742996,39.412003c-4.786995,7.939995 -15.086998,10.669998 -23.012993,6.105995c-6.340004,-3.650002 -8.428001,-11.691998 -4.706001,-17.899998a10.276,10.276 0 0 1 14.348,-3.400002c3.942001,2.490002 5.133995,7.830002 2.629997,11.965c-2,3.307999 -6.229996,4.440002 -9.462997,2.552002c-2.586998,-1.510002 -3.415001,-4.841999 -1.856003,-7.428001c1.246002,-2.07 3.919998,-2.751999 5.970001,-1.52" fill="none"/>
  <g id="svg_4" fill="#FFF">
   <path id="svg_5" d="m51.007004,39.866997c0.179993,-0.341995 -0.320007,0.046005 0.063995,-0.255997c0.062004,0.097 0.084999,0.199997 -0.062996,0.256996l-0.000999,-0.000999zm-17.454002,-10.824997c-1.266998,0.25 -3.040001,0.035 -3.870003,1.306999c-0.084999,0.135002 -0.220001,-0.314999 -0.406998,0.021999c-0.684998,1.184002 -1.426003,2.935001 -1.622002,4.689999l-0.110001,-0.085999c-0.086998,0.357002 0.32,0.657005 0.457001,0.953003c-0.064003,0.024002 -0.139999,-0.068001 -0.199997,0.034996c0.237999,0.010002 0.353996,0.526001 0.557999,0.584999c-0.017998,0.156006 -0.174004,0.222 -0.18,0.43l0.294998,0.054001c0.594002,0.218002 0.809998,0.970001 1.510002,1.272003c-0.059998,0.021996 -0.139999,0.010002 -0.132004,0.089996c0.982002,0.583 2.336006,0.970001 3.530006,1.003006c-0.054001,0.083 -0.116005,0.236 -0.050003,0.334c0.085999,-0.252007 0.459999,-0.308006 0.779999,-0.350006c0.164001,0.290001 0.528,-0.259995 0.900002,-0.189995l-0.022003,0.061996c0.218002,-0.314995 0.440002,0.084999 0.582001,-0.269997l0.220001,0.144997c0.001999,-0.393997 0.434998,0.042 0.593002,-0.216995l-0.034004,-0.067001c0.164001,-0.157005 0.342003,-0.025002 0.505005,-0.152l0.034996,0.029999c0.354004,-0.330002 0.693001,-0.293999 0.529999,-0.533997c0.264999,0.109993 -0.332001,0.325996 0.060005,0.479996c1.209999,-1.059998 2.322998,-2.229996 2.879997,-3.735001c0.185997,-0.115997 0.269997,-0.208 0.389999,-0.206001c0.037003,-0.159996 0.115997,-0.603996 0.022003,-0.779999c-0.007004,0.054001 0.167999,-0.057999 0.202995,-0.138c0.18,-0.259998 -0.227997,-0.379997 -0.021996,-0.656998c0.042999,0.135998 0.124001,0.197998 0.239998,0.178001c-0.127998,-0.308002 -0.056999,-0.658001 -0.122002,-0.987003c0.045998,0.054001 0.07,0.134003 0.160004,0.132c-0.230003,-0.373997 0.096001,-0.641998 -0.045006,-0.956997l0.160004,0.118c0.218002,-0.505001 -0.306,-0.146 -0.225998,-0.57c0.063995,0.098 0.125,0.059998 0.195,0.074997c-0.352005,-0.383999 -0.330002,-1.017998 -0.480003,-1.389999l0.07,0.003002c-0.119995,-0.406002 -0.203995,-0.856003 -0.459999,-1.260002c0.015999,-0.189999 0.398003,-0.09 0.195999,-0.509998c-0.297997,0.145 -0.5,-0.625 -0.708,-0.223c-0.141998,-0.342003 -0.292,-0.968002 -0.556,-1.092003c0.216003,0.060001 0.209999,-0.382 0.444,-0.146l0.001999,-0.312c0.135002,-0.049999 0.132004,0.230003 0.220001,0.067001c-0.124001,-0.126999 -0.547997,-0.426998 -0.602997,-0.577c-0.382004,-0.092999 -0.776001,-0.099998 -1.188004,-0.344002c0.266998,0.043003 0.145004,-0.355 0.306,-0.299999l-0.937996,0.074001c-0.130005,-0.083 0.131996,-0.23 -0.098,-0.299999c-0.042,0.077999 -0.150002,0.062 -0.245003,0.079998c-0.004997,-0.097 -0.57,-0.279999 -0.480003,-0.579998c0,-0.144001 0.270004,0.056999 0.170006,-0.124001c-0.270004,-0.130001 -0.337006,-0.038002 -0.605003,-0.165001l0.014999,-0.042c-0.155998,-0.132 -0.573997,-0.130001 -0.461998,0.130001c0.114998,0.066998 0.040001,-0.202999 0.175003,-0.027c-0.205002,0.110001 -0.520004,0.013 -0.773003,-0.112999c0.104996,-0.005001 0.126999,-0.092003 0.197998,-0.16c-0.436996,0.042999 -0.873001,0.093998 -1.294998,0.07c-0.048004,0.147999 0.225998,-0.236 0.265999,-0.140003c-0.489998,-0.327 -1.129997,-0.051998 -1.536003,-0.334999c0.077003,-0.022999 0.013,0.223 0.013,0.18c-0.253998,-0.034 -0.223,-0.259998 -0.399994,-0.187c-0.008003,-0.132 -0.220001,0.030003 -0.393005,0.060001c-0.092995,0.09 -0.043999,-0.067001 0.110001,-0.072002c-0.262001,0.048 -1.193001,0.266003 -1.763,0.210003c0.020004,0.084999 -0.284996,0.362999 -0.406998,0.369999l0.010002,-0.209999c-0.139999,-0.103001 -0.420006,0.07 -0.480003,-0.092003c-0.222,0.273003 1.013,-0.349998 0.68,-0.113998c-0.129997,-0.154999 -0.449997,0.389999 -0.427002,0.104c-0.264,0.018002 -0.425995,0.362999 -0.709999,0.248001c0.074005,0.009998 0.120003,-0.344002 -0.076996,-0.260002c-0.344002,0.158001 -0.073006,0.130001 -0.335999,0.292l-0.148003,0.140003c0.057999,0.191998 -0.318001,0.079998 -0.110001,0.244999c-0.104004,-0.137001 -0.454002,0.259998 -0.555,-0.055l-0.057999,-0.255001c-0.150002,0.067001 -0.120003,0.375999 -0.176003,0.534l-0.099998,-0.077999c0.162003,0.369999 -0.342003,0.162998 -0.349998,0.524998c-0.349998,0.052002 -0.730003,0.386002 -0.992004,0.287003c-0.119995,0.27 -0.195,0.531998 -0.462997,0.655998c0.016998,-0.065998 0.067001,-0.126999 0.024002,-0.203999c-0.213005,0.029999 -0.18,0.141998 -0.258003,0.299999c-0.010002,-0.07 -0.432999,0.068001 -0.694,0.110001c-0.110001,0.255001 0.118004,0.341999 0.195,0.450001c-0.442001,-0.082001 -0.223,0.728001 -0.674995,0.73c0.006996,-0.100002 0.07,-0.417 -0.138,-0.306c-0.459999,-0.042 -0.050003,0.555 -0.43,0.744999l0.329994,0.104c-0.283997,0.014 -0.147995,0.540001 -0.403,0.346001c0.050003,0.173 -0.281998,0.354 0.017006,0.467999c-0.501999,0.444 -0.478004,1.402 -1.183006,1.549999c0.025002,0.105003 -0.074997,0.310001 0.090004,0.314003c0.205002,-0.087002 -0.073997,-0.243999 0.056999,-0.258003c-0.010002,0.080002 0.07,0.126003 0.110001,0.148003c-0.112999,0.162998 -0.169998,0.307999 -0.382004,0.045998c-0.292,0.375 0.418007,0.594002 0.172005,1.082001c-0.123001,-0.054001 -0.18,-0.024998 -0.197998,0.135002l0.149994,0.337997c-0.133995,0.328003 -0.343994,0.142002 -0.565994,0.110001c0,0.195 -0.090004,0.422001 0.084,0.532001l-0.287003,0.200001c0.208,-0.150002 0.129997,0.174999 0.18,0.269997l-0.050003,-0.094997c-0.097,0.026001 -0.044998,0.257 -0.019997,0.371998c0.139999,-0.02 0.203003,-0.239998 0.247002,-0.356998c0.095001,0.105999 0.067001,0.254002 0.18,0.389999c-0.220001,-0.060001 -0.167999,0.297001 -0.195999,0.445999c-0.054001,0.173004 0.189995,0.200005 0.18,0.248001c-0.113007,0.003998 -0.030006,0.279999 -0.184006,0.146004c-0.034996,-0.060005 0.116005,-0.134003 0.020004,-0.232002c-0.090004,0.112 -0.288002,0.099998 -0.152,0.339996c0.101997,0.176003 0.436996,-0.054001 0.282997,0.282005l-0.212997,-0.166l-0.126999,0.322998l0.199997,0.003998l-0.096001,0.038002c0.190002,0.083 0.135002,0.473999 0.374001,0.519997c0.047005,0.152 -0.084,0.343002 -0.083,0.497002l-0.021996,-0.028c-0.087006,0.200005 0.029999,0.436005 0.185997,0.562004l-0.044998,0c0,0.101997 0.068001,0.333 0.201996,0.43c-0.106995,0.282997 -0.726997,0.263 -0.43,0.486c0.102005,0.25 0.5,0.285995 0.584999,0.152c0.035004,0.476997 0.520004,0.849998 0.378006,1.366997c0.097,0.029999 0.129997,-0.029999 0.219994,0.080002c0.137001,0.686996 0.907005,1.097 0.817001,1.783997c-0.172997,-0.123001 -0.175995,0.098 -0.267998,0.165001c0.234001,0.040001 -0.050003,0.276001 0.234001,0.153c0.139999,-0.116997 0.220001,-0.153 0.183998,-0.356003c0.260002,0.310005 0.620003,0.784004 0.669998,1.033005c-0.009995,-0.135002 0.090004,-0.106003 0.192001,-0.078003c-0.241997,0.163002 -0.068001,0.413002 0.160004,0.510002l0.152,-0.096001l-0.033005,0.230003c0.099998,0.025993 0.330002,-0.186005 0.357002,0.093994l-0.090004,0.18c0.270004,0.064003 0.625,0.146004 0.724007,0.404999l0.001999,0.313004c0.106995,0.042 0.351997,0.026001 0.244995,-0.139999c0.25,0.365997 0.464005,0.543999 0.447006,0.806c0.879997,0.059998 1.801994,0.505997 2.607994,0.856003l-0.077995,0.109993c0.164001,0.207001 0.203995,-0.161995 0.313995,-0.011993c-0.119995,0.084 0.056,0.324997 -0.173996,0.389999c0.257996,0.269997 0.487,-0.029999 0.703995,0.001999c0.092003,-0.148003 -0.199997,0.029999 -0.079994,-0.155998c0.053001,-0.043007 0.372002,0.316994 0.504997,0.091995c0.042,0.130005 -0.080002,0.287003 -0.157997,0.368004l0.229996,-0.035004c0.137001,0.396004 -0.711998,0.274002 -0.593994,0.739998l0.195999,0.044006c0.087997,0.337997 -0.592003,0.07 -0.157005,0.369995c0.245003,-0.026001 0.534004,-0.325996 0.393005,-0.505997c0.449997,0.049995 0.389999,-0.543999 0.833,-0.419998c0.081993,0.174995 -0.373001,-0.042999 -0.348,0.18c0.156998,0.25 0.465996,-0.017006 0.635994,0.095993c-0.186996,-0.141998 0.062004,-0.356995 0.207001,-0.375c0.197998,0.170006 -0.209999,0.206001 0.110001,0.305c0.090004,-0.134995 0.408005,-0.18 0.178001,-0.339996c0.190002,-0.307999 0.309998,0.167999 0.538002,-0.053001c0.059998,0.260002 -0.445,0.470001 -0.110001,0.669998c-0.010002,-0.239998 0.5,-0.209999 0.373001,-0.591995c0.121994,0.096001 0.107994,0.279999 -0.018005,0.396996c0.18,0.187004 0.542999,-0.309998 0.542,0.162003l0.100006,-0.220001l0.219994,0.306c0.184006,0.008003 0.610001,-0.309998 0.564003,0.047005c0.061996,-0.036003 0.472,-0.010002 0.328003,-0.260002c-0.240005,-0.156998 -0.306,0.172997 -0.417,-0.164001c0.153999,0.275002 0.364998,-0.029999 0.509995,-0.117996l0.017006,0.139999c0.089996,-0.054001 0.285995,-0.020004 0.343994,-0.167999c-0.067001,0.077995 -0.036995,0.172997 0.029999,0.208l0.096001,-0.210007c0.347,-0.096001 0.076004,0.374001 0.420006,0.32l-0.264,0.158005c0.057999,-0.034004 0.175995,0.167 0.342995,0.104996c0.063004,-0.189995 0.178001,-0.417999 0.228004,-0.565994c0.186996,-0.080002 0.092995,0.219994 0.271996,0.027l-0.237999,0.224998c-0.036995,0.061996 0.178001,0.322998 0.442001,0.324997c0.166,-0.056999 0.398003,-0.336998 0.133003,-0.444c0.127998,0.012001 0.313995,0.07 0.224998,0.237c0.284996,-0.117996 -0.054001,-0.199997 0.182999,-0.362999c0.112,0.110001 0.449997,0.237 0.669998,0.389999l-0.229996,0.363998l0.18,-0.025993c-0.202003,0.294998 0.145996,0.173996 0.045998,0.466995c0.131996,0.022003 0.273003,-0.096001 0.384003,-0.186996c-0.423004,-0.370003 0.312996,-0.657005 0.137993,-1.029999c0.448006,-0.184006 0.485001,0.899994 0.865005,0.206993c-0.104004,-0.087997 0.063995,-0.419998 -0.209999,-0.259995c0.306,-0.006004 0.110001,-0.420006 0.491997,-0.316002c-0.220001,0.199997 0.377998,0.346001 0.057999,0.637001c-0.005997,-0.130005 -0.236,-0.062004 -0.285995,-0.016998c0.159996,0.127998 0.061996,0.394997 0.377998,0.342995c0.187996,-0.053001 0.440002,-0.138 0.347,-0.335999c-0.063004,-0.204002 -0.275002,0.103004 -0.215004,-0.148003c0.337006,-0.189995 0.493004,0.105003 0.525002,-0.333c-0.213997,0.114006 -0.334,-0.089996 -0.372002,-0.243996l0.225006,-0.185997l-0.005005,0.162994c0.440002,-0.047997 0.040001,-0.306999 0.440002,-0.414001l0.279999,0.213005c-0.010002,0.279999 -0.610001,0.105995 -0.414001,0.479996c0.270004,-0.084 0.287003,-0.316994 0.568001,-0.305l-0.156998,0.147003c0.096001,-0.019997 0.379997,0.466003 0.650002,0.019997c0.149994,-0.189995 -0.001999,-0.155998 -0.054001,-0.305c0.403999,-0.197998 0.464996,-0.389999 0.722,-0.509995c0.07,0.299995 0.489998,-0.144005 0.322998,0.248001c-0.216003,-0.112 -0.809998,0.121994 -0.853996,0.449997c0.289993,0.279999 -0.354004,0.073997 -0.318001,0.453003c0.349998,-0.120003 0.463997,0.219994 0.606995,0.416c0.107002,-0.020004 0.167,-0.150002 0.212006,-0.205002c-0.042,-0.217003 -0.170006,-0.167 -0.263,-0.375c0.411995,-0.090004 0.748001,-0.330002 0.857994,-0.616005c0.163002,0.024002 0.228004,0.25 0.090004,0.346001c0.400002,-0.306999 0.860001,-0.559998 1.302002,-0.743996c-0.443001,-0.153 0.404999,-0.340004 0.07,-0.489998c-0.255005,0.059998 -0.562004,-0.054001 -0.529999,-0.260002c0.139999,-0.060005 0.075996,0.137001 0.169998,0.169998c0.061996,-0.265999 0.422997,0.112 0.422997,-0.248001c-0.313995,0.322998 0.160004,0.415001 0.240005,0.694c0.197998,-0.303001 0.094994,0.177002 0.376999,0.007004c0.191994,-0.312004 0.489998,-0.587006 0.729996,-0.864006c0.501999,-0.094994 0.862,-0.771996 1.152,-1.046997c0.255005,-0.038002 0.362999,0.292999 0.577003,0.175003c0.202995,-0.190002 -0.388,-0.110001 0.016998,-0.280006l0.014999,0.072006c0.040001,-0.133003 0.717003,-0.354004 0.473,-0.747002l0.156998,0.32c0.080002,-0.029999 0.076004,-0.129997 0.096001,-0.199997c0.084999,0.075996 0.227005,0.084 0.188004,0.219994c0.363998,-0.016998 0.306,-0.452995 0.470001,-0.672997l-0.260002,0.010002c0.156998,-0.480003 0.501999,-0.603004 0.720001,-1.014l0.152,0.129997l0.067001,-0.290001c0.116997,0.167999 0.369995,0.035004 0.324997,-0.172997l-0.037003,0.865997c-0.214996,0.089996 -0.059998,-0.322998 -0.293999,-0.337997c-0.202995,-0.018005 -0.412003,0.353996 -0.304001,0.529999c0.116005,-0.117004 0.085999,-0.150002 0.105003,-0.297005c0.253998,0.125 0.095001,0.32 0.164001,0.538002c0.043999,-0.077995 0.185997,-0.125999 0.126999,-0.195c0.003998,0.222 -0.084999,0.376999 -0.255005,0.613998c0.034004,-0.226997 -0.195999,-0.024994 -0.211998,-0.135994c0.174004,0.174995 0.063004,0.447998 -0.204002,0.689995c-0.377998,-0.002998 -0.362999,0.583 -0.729996,0.816002c-0.044998,-0.292 -0.029999,-0.573997 0.082001,-0.809998c-0.278,0.084999 -0.206001,0.195999 -0.483002,0.278c0.037003,0.213997 0.167999,0.476997 -0.010002,0.790001l-0.138,-0.123001c-0.163994,0.273994 0.014999,0.477997 -0.314995,0.703995c-0.558006,0.396004 -1.07,0.862 -1.555,1.072006l-0.120003,-0.139999c-0.027,0.469994 -0.737,0.612 -0.979996,0.959999c-0.650002,0.177994 -1.146004,0.921997 -1.620003,0.708c-1.037003,0.492996 -1.936005,1.104996 -3.141998,1.283997l0.138,-0.292c-0.166,0.225998 -0.173004,-0.125 -0.370003,-0.052002c0.286003,0.166 -0.226997,0.317001 -0.345001,0.5c-0.572998,-0.112 -1.211998,0.223999 -1.678001,0.487l-0.036995,-0.18c-0.448006,0.465004 -1.068001,0.116005 -1.670006,0.050003c-0.07,-0.077003 -0.177994,-0.25 -0.355995,-0.235001c-0.332001,0.288002 -0.504005,0.263 -1.002998,0.433998c-0.357002,-0.023994 -0.937004,-0.057999 -1.266006,-0.292c-1.351997,0.042 -2.731995,-0.259995 -4.061996,-0.703995l-0.014,-0.240005c-1.455002,-0.093994 -2.790001,-1.201996 -3.833,-1.799995l0.311996,-0.228004c-0.226997,-0.301994 -0.735001,-0.412994 -0.826996,-0.159996c-0.25,-0.277 -0.837997,-0.470001 -0.786003,-0.873001c-0.211998,-0.327003 -0.439995,-0.223 -0.695,-0.428001c-0.400002,-0.68 -0.686996,-0.806999 -1.127998,-1.388l0.077003,0.167c0.105995,0.020004 0.233994,-0.067001 0.159996,-0.232002c-0.225998,-0.169998 -0.435997,-0.894997 -0.662003,-0.426994c-0.169998,-0.798004 -1.199997,-1.442001 -1.089996,-2.333c-0.086998,0.105995 -0.175003,-0.064003 -0.278,-0.110001c-0.237999,-0.658005 -0.286003,-1.395004 -0.614998,-1.870003c0.040001,-0.123001 0.225998,0.120003 0.191994,-0.156998c-0.071999,-0.152 -0.151993,0.033997 -0.25,-0.153c-0.369995,-1.080002 -0.236,-2.264999 -0.167999,-3.258003c-0.265999,-1.806999 0.277,-3.691998 0.872002,-5.291996l0.073997,0.049999c-0.061996,-0.667 0.878006,-1.07 0.630005,-1.720001c0.129997,-0.084 0.260002,-0.453999 0.362999,-0.274998c0.056,-0.523003 0.946999,-0.928001 1.113998,-1.653004l-0.067001,0.167004c0.520004,-0.450001 0.830002,-0.990002 1.480003,-1.353001c-0.029999,0.077 -0.112,0.184998 -0.07,0.264999c0.311996,-0.052002 0.255997,-0.720001 0.632996,-0.490002c0.116005,-0.105 -0.043999,-0.242001 -0.109993,-0.167999c1.329994,-0.829998 2.717995,-1.762001 4.32,-2.313c1.223999,0.071999 0.209999,0.686001 1.061996,0.244999c0.085999,0.07 0.029999,-0.167 0.055,-0.081997c0.342003,-0.167004 0.594002,0.396 0.809998,0.144997c-0.119995,-0.245998 0.150002,-0.167 0.147003,-0.324997c0.720001,0.125 0.839996,0.424999 1.402,0.241997l-0.050003,0.134003c0.682999,-0.375999 1.403,-0.082001 2.038002,-0.330002c3.550003,0.709999 7.116997,3.207001 8.176003,7.021999c1.032997,3.630001 0.251999,7.77 -2.734001,10.472004c-0.93,0.355995 -0.917,0.407997 -1.708,1.040001c0.004997,-0.07 0.049995,-0.115005 -0.034004,-0.127007c0.106003,0.280006 -0.582001,0.385002 -0.542999,0.677002c-1.362,0.496002 -2.667999,0.986 -4.209999,0.860001c0.245003,-0.024002 0.362999,-0.263 0.084999,-0.25l-0.305,0.18l-0.042,-0.084999c-0.194,0.037003 -0.426994,0.171997 -0.232994,0.275002c-4.030006,-0.023003 -7.336006,-4.375 -6.710007,-8.220001c0.292999,-0.855 0.610001,-2.134003 1.054001,-3.049999c2.130005,-2.425003 5.256004,-2.803001 7.946999,-1.553001c-0.006996,0.009998 -0.773994,0.512001 -1.764,0.360001l0.005005,0.008999zm17.199997,11.216003c-0.172997,-0.014 -0.400002,0.154999 -0.434998,-0.125c0.129997,0.056 0.342003,0.029999 0.434998,0.125z"/>
   <path id="svg_6" d="m44.804001,44.053001c0.015999,0.042 -0.113998,0 -0.145004,-0.010002c0.063004,-0.053001 0.060005,-0.195999 0.158005,-0.165001c-0.065002,0.052002 -0.015999,0.104004 -0.014,0.175003l0.000999,0zm-1.496002,0.798996c-0.036995,-0.129997 0.220001,-0.409996 0.391998,-0.529999l-0.391998,0.529999zm-1.645996,0.104004c-0.163002,-0.057999 -0.150002,-0.126999 0.014999,-0.183998c0.037994,0.059998 -0.004005,0.112 -0.014999,0.183998zm0.005997,0.316002c-0.120003,0.047997 -0.207001,-0.002007 -0.290001,-0.052002c0.042,0.103996 0.25,-0.167999 0.290001,0.052002zm-3.297997,0.486c-0.076004,0.022995 -0.230003,0.159996 -0.323006,0.028c0.096001,0.086998 0.353004,-0.230003 0.322006,-0.028l0.000999,0zm-1.498001,0.407997l-0.127998,0c-0.094002,-0.063004 -0.002007,-0.155998 0.072998,-0.166l0.055,0.166zm-12.614998,-18.546001l-0.046005,0.167999l-0.093002,-0.091999l0.139008,-0.076zm10.820999,-3.445999c0.183998,-0.02 0.059998,0.163002 0.079994,0.189999c-0.139999,-0.049999 0.110001,-0.134998 -0.079994,-0.189999zm5.241997,4.033001l-0.019997,-0.049999l0.253998,-0.09l-0.234001,0.139999z"/>
  </g>
  <g id="svg_7">
   <path id="svg_8" d="m12.421997,27.492001l0.035004,-1.118l0.034996,-0.525002l0.210007,-0.596001l0.489998,-0.91l0.279999,-0.557999l0.242996,-0.454998l0.455002,-0.978001l0.105003,-0.735001l0.139999,-0.804001l0.209999,-0.944l0.244003,-1.294998l-0.106003,-0.804001l-0.244003,-0.874001l0.105003,-0.594002l0.173996,-0.769997l0.140007,-0.454002l0.487999,-1.049999l0.665001,-0.77l0.629997,-0.417999l1.013,-0.560001l0.664001,-0.383999l0.874001,-0.384998l0.979996,-0.104l1.118004,-0.245003l1.047997,-0.452999l1.153999,-0.805l0.735001,-0.453999l0.417999,-0.280003l1.084,-0.733997l1.083,-0.490002l1.362999,-0.243999l1.153999,-0.139999l0.910004,-0.07l1.362999,0.453999l1.711998,0.84l2.413002,0.84l1.642998,0.243999l1.818001,0.174l1.153999,0.175003l0.700005,0.349998l1.501999,1.329998l2.377998,2.342003l3.18,3.007l1.854004,1.781998l1.223,1.257999l0.385994,0.735001l0.210007,2.692001l0.173996,3.252998l0.035004,2.203003l-0.174004,3.496998l-0.173996,2.660004l-0.140007,1.641998l-0.733994,2.376999l-0.105003,0.489998l0.07,1.153999l0.419998,2.274002l0.174004,1.120003l0.106003,1.047997l-0.280006,0.874001l-1.642998,1.958l-2.201996,2.413002l-2.900002,2.623001l-2.448006,1.922997l-1.677994,1.120003l-1.643005,0.977997l-0.907997,0.560005l-0.874001,0.139999l-1.153,-0.139999l-1.782997,-0.210007l-2.063004,-0.208l-1.154999,-0.139999l-1.991997,-0.805l-2.622002,-1.189995l-2.237,-1.048004l-0.454002,-0.384995l-1.364998,-1.994003l-1.712006,-2.692001l-1.362999,-2.131996l-1.119995,-1.854004l-0.594002,-0.979996l-0.804001,-2.027l-0.349998,-0.875l-0.454002,-1.573006l-1.572998,-2.237999l-0.559998,-1.084999l-0.524002,-2.028l-0.138,-0.559998l-0.385002,-1.330002l-0.244995,-1.048l0.034996,-1.470001l0.035004,-1.329998l0.07,-1.188" fill="none"/>
   <g id="svg_9" fill="#FFF">
    <path id="svg_10" d="m11.946999,27.130001c0.042999,0.532997 0.239998,-0.280003 0.090004,0.349998c-0.103004,-0.075001 -0.18,-0.18 -0.090004,-0.349998z"/>
    <path id="svg_11" d="m12,29.247002c0.394997,1.726997 0.334,3.986 1.287003,5.705002c0.083,0.205994 -0.378006,0.039993 -0.167,0.496994c0.568001,1.797005 2.955994,3.722 2.764999,6.240005l-0.148003,-0.084c0.084999,0.419998 0.602997,0.765999 0.720001,1.199997c-0.063004,0.029999 -0.145004,-0.096001 -0.197998,0.036003c0.239998,0.025993 0.389999,0.713997 0.605995,0.831993c-0.012001,0.194 -0.174995,0.240005 -0.18,0.487007l0.32,0.149994c0.894005,0.410004 0.870003,1.523003 1.632004,2.223c-0.071999,-0.009995 -0.160004,-0.07 -0.167,0.023003c1.108002,1.152 2.122002,2.807999 3.157997,4.215004c-0.110001,-0.012001 -0.275002,0.017998 -0.302002,0.154999c0.260002,-0.064003 0.604004,0.354996 0.896004,0.722c-0.113998,0.312996 0.644997,0.522995 0.830002,1.055l-0.074005,-0.007004c0.455002,0.18 0.208,0.584 0.665001,0.669998l-0.023994,0.328003c0.247993,-0.272003 0.306,0.594002 0.622993,0.475998l0.022003,-0.073997c0.322998,0.052002 0.392998,0.290001 0.684998,0.357002l0.007004,0.049995c0.659996,0.204002 0.933998,0.557999 1.040001,0.290001c0.119995,0.312004 -0.645004,-0.185997 -0.445999,0.279999c2.173996,0.565002 4.237,1.967003 6.396996,2.169998c0.235001,0.142006 0.400002,0.194 0.445999,0.310005c0.230003,-0.037003 0.854004,0.031998 1.074005,-0.094002c-0.077003,-0.001999 0.129997,0.160004 0.25,0.187004c0.395996,0.147995 0.483994,-0.265007 0.917999,-0.085007c-0.188004,0.055 -0.260002,0.139999 -0.212006,0.254005c0.410004,-0.178001 0.917,-0.083 1.380005,-0.100006c-0.076004,0.040001 -0.188004,0.055 -0.181999,0.146004c0.514999,-0.197998 0.93,0.169998 1.321999,0.046997c0,0.064003 -0.104004,0.100006 -0.152,0.152c0.762001,0.160004 0.159996,-0.355995 0.788002,-0.318001c-0.136002,0.075005 -0.075005,0.130005 -0.090004,0.203003c0.422005,-0.322998 1.190002,-0.893997 1.647003,-1.216003l0.014,0.072006c0.515999,-0.356003 1.112,-0.580002 1.598,-1.080002c0.247002,-0.076004 0.157997,0.381996 0.667999,-0.029999c-0.205002,-0.265999 0.847,-0.730003 0.317001,-0.832001c0.417999,-0.252998 1.229996,-0.736 1.439995,-1.043999c-0.119995,0.253998 0.466003,0.152 0.118004,0.459999l0.402,-0.056c0.042999,0.139999 -0.313004,0.186996 -0.118004,0.252998c0.174004,-0.154999 0.625,-0.677002 0.822006,-0.763c0.239998,-0.431999 0.236,-0.987999 0.737999,-1.485001c-0.156006,0.317001 0.384995,0.148003 0.257996,0.340004l0.293999,-1.125999c0.160004,-0.168007 0.213005,0.159996 0.404007,-0.130005c-0.07,-0.053001 0,-0.192001 0.026993,-0.312996c0.092003,-0.030006 0.660004,-0.709999 0.957001,-0.532005c0.162003,0.025002 -0.235001,0.304001 0.035004,0.220001c0.290001,-0.266998 0.215996,-0.394997 0.501999,-0.704002l0.038002,0.024002c0.226997,-0.174995 0.459999,-0.709999 0.117996,-0.605995c-0.139999,0.139999 0.195999,0.077995 -0.07,0.229996c-0.006996,-0.277 0.290001,-0.68 0.576004,-1c-0.060005,0.142998 0.016998,0.190002 0.045998,0.294998c0.209999,-0.627998 0.537003,-1.062996 0.862,-1.638c-0.112999,-0.107994 0.064003,0.367004 -0.059998,0.387001c0.695999,-0.491997 0.858002,-1.501999 1.542,-1.823997c-0.050003,0.103996 -0.209999,-0.097 -0.169998,-0.074997c-0.155006,0.261993 0.267998,-0.110001 0.201996,-0.240005c0.143997,-0.257996 0.078003,0.042999 -0.034996,-0.269997c-0.108002,-0.126999 0.059998,-0.073997 0.096001,0.154999c-0.130005,-0.363998 -0.508003,-1.736 -0.495003,-2.602997c-0.082001,0.032997 -0.412003,-0.460007 -0.438004,-0.655006l0.216003,0.038002c0.087997,-0.199997 -0.137001,-0.645996 0.029999,-0.709999c-0.321999,-0.370003 0.502998,1.556 0.209999,1.029999c0.142998,-0.175995 -0.465996,-0.720001 -0.167,-0.650002c-0.065002,-0.279999 -0.409996,-0.874001 -0.216995,-1.244995c-0.027,0.110001 0.303993,0.303001 0.269997,-0.014999c-0.07,-0.560005 -0.108002,-0.153999 -0.204002,-0.606003c-0.049995,-0.042999 -0.019997,-0.612 -0.040001,-0.513c-0.222,0.050003 0.18,-0.669998 -0.129997,-0.330002c0.218002,-0.199997 0.153999,-0.862999 0.463997,-0.75l0.227005,0.150002c0.054001,-0.237 -0.145004,-0.459999 -0.200005,-0.678001c0.033005,-0.023994 0.102005,-0.07 0.139999,-0.044998c-0.371994,-0.155998 0.203003,-0.545998 -0.007996,-0.914001c0.215996,0 0.132996,-1.153999 0.409996,-1.263c-0.084999,-0.406998 -0.209999,-0.731995 -0.094994,-1.189995c0.031998,0.091995 0.035995,0.213997 0.119995,0.244995c0.136002,-0.271996 0.035004,-0.349998 -0.013,-0.610001c0.056,0.063004 0.270004,-0.544998 0.432999,-0.846996c-0.093994,-0.396999 -0.317993,-0.277 -0.446999,-0.325001c0.423004,-0.334999 -0.197998,-1.084999 0.186005,-1.523998c0.046997,0.136997 0.166,0.577999 0.279999,0.257999c0.413002,-0.336002 -0.252998,-0.732002 -0.036003,-1.297001l-0.334,0.125999c0.215004,-0.245998 -0.147995,-0.855 0.182999,-0.779999c-0.110001,-0.165001 0.144005,-0.748001 -0.183998,-0.548c0.25,-0.987 -0.182999,-2.237999 0.340004,-2.854c-0.062004,-0.132 -0.025002,-0.473 -0.186005,-0.395c-0.166,0.233002 0.145004,0.306 0.028,0.396c-0.015999,-0.119999 -0.104996,-0.143002 -0.150002,-0.153c0.057007,-0.297001 0.067001,-0.528 0.348,-0.265999c0.163002,-0.663002 -0.579994,-0.644001 -0.5,-1.48c0.135002,0.029999 0.18,-0.036003 0.147003,-0.278c-0.083,-0.138 -0.167,-0.328003 -0.25,-0.420002c0.010002,-0.540001 0.276001,-0.329998 0.498001,-0.360001c-0.059998,-0.282997 -0.077003,-0.632999 -0.252998,-0.75l0.252998,-0.369999c-0.182999,0.27 -0.153,-0.226002 -0.218002,-0.355999l0.064003,0.129997c0.091995,-0.059998 0.006996,-0.386997 -0.034004,-0.552998c-0.134995,0.051998 -0.165001,0.395 -0.189995,0.582001c-0.110001,-0.138 -0.105003,-0.368 -0.236,-0.553001c0.129997,-0.275002 0.281998,-0.049999 0.105995,-0.317001c-0.079994,-0.253998 -0.311996,-0.169998 -0.339996,-0.239998c0.082001,-0.134003 0.099998,0.122997 0.193001,-0.049999c0.141998,0.084 -0.290001,-0.190002 0.015999,0.084c-0.129997,-0.333 0.365997,-0.092003 -0.034004,-0.290001c-0.265999,-0.116001 -0.262993,0.353001 -0.519997,-0.110001c0.132004,0.057999 0.212997,0.014999 0.342003,0.035l-0.252007,-0.424l-0.157997,0.125c-0.010002,-0.082001 0.035004,-0.063 0.034004,-0.102001c-0.240005,0.058002 -0.584,-0.507999 -0.776001,-0.362c-0.190002,-0.152 -0.270004,-0.453999 -0.420006,-0.629997l0.043007,0.019997c-0.123001,-0.281998 -0.447006,-0.486 -0.710007,-0.552998l0.040001,-0.023003c-0.099998,-0.118 -0.385994,-0.348 -0.606995,-0.396999c-0.176003,-0.377998 0.437996,-0.627998 -0.053001,-0.746998c-0.292,-0.266003 -0.702003,-0.16 -0.675003,0.043999c-0.422997,-0.585999 -1.234001,-0.903 -1.5,-1.582001c-0.129997,-0.011997 -0.116997,0.07 -0.303001,-0.039997c-0.704994,-0.763 -1.785995,-1.395 -2.084999,-2.242001c0.274002,0.152 0.155998,-0.130001 0.230003,-0.214001c-0.303001,-0.047001 -0.082001,-0.343002 -0.362,-0.187c-0.110001,0.146 -0.190002,0.189999 -0.029999,0.450001c-0.560005,-0.41 -1.117004,-0.978001 -1.288002,-1.330002c0.073997,0.176003 -0.063004,0.130001 -0.200005,0.080002c0.224007,-0.187 -0.089996,-0.523003 -0.419998,-0.677002l-0.152,0.100002l-0.049995,-0.286003c-0.020004,0.053001 -0.612999,-0.042999 -0.240005,0.047001l-0.006996,-0.212997c-0.476997,-0.117001 -0.178001,0.287998 -0.893997,-0.003002l-0.277,-0.301998c-0.047005,0.014 -0.43,0.139999 -0.117004,0.241997c-0.646996,-0.217999 -1.071999,-0.278 -1.260002,-0.519997c-1.093994,0.532997 -3.219994,0.053997 -4.407997,-0.5l0.080002,-0.110001c-0.297005,-0.234001 -0.25,0.155998 -0.457001,-0.012001c0.150002,-0.080002 -0.167,-0.348 0.148003,-0.400002c-0.653,-0.41 -0.764,-0.101997 -1.146004,-0.208c-0.122002,0.133003 0.290001,0.02 0.135002,0.188004c-0.080002,0.029999 -0.577003,-0.434002 -0.763,-0.233002c-0.07,-0.150002 0.102997,-0.279999 0.211998,-0.344002l-0.336998,-0.022999c-0.209999,-0.443001 1.022995,-0.106998 0.827995,-0.623001l-0.275993,-0.09c-0.127007,-0.366997 0.82,0.058002 0.211998,-0.344997c-0.340004,-0.021999 -0.748001,0.200001 -0.548004,0.427998c-0.464996,-0.109997 -0.434998,0.504002 -1.055,0.267002c-0.132996,-0.207001 0.545006,0.142998 0.485001,-0.104c-0.246994,-0.305 -0.667,-0.098 -0.922997,-0.262001c0.531998,0.248001 -0.636002,0.248001 0.285995,0.452c-0.365997,-0.096001 0.213005,-0.264999 -0.293999,-0.252998c-0.07,0.156998 -0.527,0.306 -0.117996,0.380001c-0.220001,0.357998 -0.450005,-0.060001 -0.709999,0.241997c-0.192001,-0.219997 0.449997,-0.615997 -0.116005,-0.667999c0.116005,0.220001 -0.642998,0.396 -0.309998,0.700001c-0.223999,-0.037998 -0.269997,-0.216999 -0.129997,-0.376999c-0.187004,-0.135002 -0.628006,0.536999 -0.778,0.09l-0.063004,0.252998l-0.436996,-0.189999c-0.375,0.017998 -0.112,0.445999 -0.522003,0.169998c-0.065002,0.07 -0.642998,0.312 -0.32,0.438c0.417,-0.02 0.334,-0.348 0.669998,-0.132c-0.247002,-0.200001 -0.759995,0.41 -0.400002,0.294003l-0.109993,-0.094002c-0.080002,0.119999 -0.352005,0.268002 -0.337006,0.439999c0.042,-0.123997 -0.056,-0.171997 -0.162994,-0.139999l0,0.253002c-0.394005,0.395 -0.306,-0.238003 -0.725006,0.118l0.25,-0.365002c-0.049995,0.075001 -0.32,0.02 -0.494995,0.216c0.07,0.185001 -0.057999,0.548 -0.043999,0.712002c-0.210007,0.23 -0.228004,-0.114002 -0.374001,0.208l0.204994,-0.400002c0.016006,-0.084 -0.388,-0.133999 -0.724998,0.080002c-0.059998,0.119999 -0.306,0.632 0.110001,0.469997c-0.163002,0.118 -0.459999,0.182003 -0.409996,-0.023998c-0.335007,0.313999 0.167,0.135998 -0.085007,0.458c0.027,-0.139999 -1.034996,0.316998 -1.331993,0.195999c0.154999,-0.195 0,-0.209999 0.409996,-0.553001c-0.409996,0.224003 -0.256996,0.122002 -0.414001,0.200001c0.220001,-0.376999 -0.242996,-0.110001 -0.169998,-0.439999c-0.185997,0.035999 -0.355003,0.209999 -0.491997,0.347c0.867996,0.124001 -0.57,0.869999 -0.318001,1.16c-0.764999,0.264 -0.523003,-0.841999 -1.423004,-0.074001c0.209999,0.077999 -0.358002,0.456001 0.425003,0.237999c-0.792999,0.060001 -0.360001,0.445004 -0.995003,0.352001c0.384003,-0.206001 -0.473999,-0.354 0.080002,-0.652c-0.023003,0.134003 0.334999,0.063999 0.419998,0.02c-0.206001,-0.132 -0.003998,-0.403 -0.473999,-0.353001c-0.352997,0.035999 -0.167999,0.143002 -0.258003,0.346001c0.102005,0.205002 0.394005,-0.200001 0.317001,0.086002c-0.431999,0.274998 -0.862999,0.087997 -0.635994,0.427998c0.037994,-0.049999 0.419998,0.036999 0.412994,0.209999c-0.034996,0.047001 -0.417999,0.260002 -0.165001,0.170002c0.153,-0.138 -0.215996,-0.007999 -0.169998,-0.084c-0.326996,0.076 0.090004,0.27 -0.493996,0.562l-0.413002,-0.113003c0.007996,-0.292999 0.940002,-0.403999 0.604996,-0.695c-0.369995,0.197002 -0.443001,0.482002 -0.825996,0.568001l0.223,-0.217999c-0.141998,0.062 -0.542999,-0.350002 -0.919998,0.228001c-0.040001,0.177998 0.056,0.141998 0.169998,0.253998c-0.639999,0.459999 -0.017998,0.170002 -0.542,0.765999c-0.085999,-0.133999 -0.220001,0.008003 -0.32,0.113003c-0.230003,0.307999 0.436996,-0.743999 -0.129997,-0.116001c0.519997,-0.294998 0.559998,-0.495998 0.719994,-0.872002c-0.347,-0.216 0.387001,-0.188 0.357002,-0.572998c-0.519997,0.275002 -0.582001,-0.096001 -0.802002,-0.23c-0.135994,0.07 -0.203995,0.235001 -0.259995,0.315998c0.068001,0.220001 0.231995,0.106003 0.367996,0.290001c-0.173996,-0.114998 -0.879997,1.055 -0.510002,0.902c-0.186996,0.139999 -0.357994,-0.012001 -0.274994,-0.240002c-0.316002,0.814003 -0.555,1.192001 -0.727005,1.908001c0.43,-0.322998 -0.062996,0.727001 0.293999,0.490002c0.140007,-0.370003 0.450005,-0.496002 0.57,-0.313c-0.074997,0.219997 -0.153,-0.042 -0.25,0.035999c0.152,-0.068001 -0.369995,0.950001 -0.139999,0.079998c0.027,0.506001 -0.399994,0.125 -0.649994,0.220001c0.102997,0.521999 -0.284004,-0.5 -0.18,0.224998c0.283997,0.492001 0.592995,0.894001 0.604996,1.816002c-0.367996,0.575001 -0.341995,1.720001 -0.445999,2.234001c-0.193001,0.284 -0.470001,0.02 -0.582001,0.344997c-0.059998,0.388 0.385002,-0.219997 0.147003,0.310001l-0.056,-0.053001c0.102997,0.102001 -0.407005,1.100002 -0.130005,1.396l-0.235001,-0.309998c-0.074997,0.085999 -0.045998,0.211998 -0.049995,0.309998c-0.105003,-0.042999 -0.25,0.030003 -0.243004,-0.163998c-0.356995,0.23 -0.302994,0.707001 -0.476997,1.057999l0.294998,-0.125c-0.139999,0.636002 -0.583,1.046001 -0.779999,1.543999c-0.059998,-0.033997 -0.148003,0.008003 -0.190002,-0.063999l-0.007996,0.385002c-0.139999,-0.150002 -0.422005,0.139999 -0.239998,0.369999c-0.146004,-0.353001 -0.165001,-0.689999 -0.140007,-1.139999c0.237007,-0.192001 0.066002,0.383999 0.323006,0.322998c0.223,-0.049999 0.459999,-0.610001 0.337997,-0.786999c-0.129997,0.194 -0.095001,0.223999 -0.116997,0.417c-0.280006,-0.063999 -0.105003,-0.369999 -0.186005,-0.610001c-0.047997,0.112 -0.203995,0.225002 -0.139999,0.290001c0.001999,-0.286999 0.084,-0.48 0.252998,-0.841999c-0.022995,0.289997 0.220001,-0.053001 0.245003,0.072998c-0.222,-0.125999 -0.054001,-0.556 0.18,-0.902c0.454002,-0.342999 0.203003,-0.702 0.297997,-1.274998c0.190002,0.246998 0.420006,0.622997 0.365005,0.899998c0.279999,-0.257 0.079994,-0.371998 0.278,-0.689999c-0.160004,-0.195 -0.416,-0.377998 -0.446999,-0.852001l0.185997,0.006001c-0.014999,-0.470001 -0.269997,-0.501999 -0.104004,-1.022999c0.310005,-0.968002 0.450005,-1.667 0.252007,-2.234001l0.167999,-0.074001c-0.610001,-0.189999 -0.288002,-1.755997 -0.270004,-2.036999c0.279999,-0.737999 0.736,-2.32 1.290001,-2.346001c1.32,-1.326 2.292,-2.099998 4.309998,-2.563l-0.246994,0.292999c0.269997,-0.224998 0.206001,0.132 0.487999,0.062c-0.290001,-0.189999 0.288002,-0.289997 0.458,-0.52c0.723,0.122002 1.515999,-0.484997 1.729996,-0.857998l0.125,0.134998c0.310005,-0.657997 1.270004,-0.911999 1.894005,-1.237999c0.119995,0.010002 0.329994,0.074001 0.522995,-0.079998c0.282005,-0.510002 0.220001,-0.564003 1.020004,-1.162003c0.207001,-0.18 1.459999,-0.502998 1.913002,-0.402c1.579994,-0.967999 4.699997,-0.341999 5.921997,0.48l0.025002,0.252003c1.712997,0.279999 3.529999,1.194 4.987,0.959999l-0.181999,0.349998c0.466995,0.16 1.098,0.010002 1,-0.259998c0.75,0.279999 0.922997,-0.186001 1.874001,0.546001c0.349998,0.216 1.132996,0.48 1.235001,0.57c0.593994,0.716999 1.017998,1.015999 1.706993,1.618l-0.147995,-0.178001c-0.130005,-0.014 -0.245003,0.09 -0.097,0.27c0.318001,0.169998 0.836998,0.964001 0.897995,0.41c0.544006,0.900002 1.763,1.445999 2.240005,2.354c0.021996,-0.143002 0.213997,0.007 0.344002,0.02c0.634995,0.591999 1.131996,1.397999 1.774994,1.725998c0.063004,0.142002 -0.309998,-0.009998 -0.042999,0.257c0.182999,0.113003 0.110001,-0.109997 0.344002,0.022003c1.239998,0.925999 1.724998,1.851997 3.057999,3.397999c1.302002,3.16 0.715004,4.887001 1.040001,7.346001l-0.087997,-0.023003c0.339996,0.77 -0.300003,1.614002 0.183998,2.398003c-0.092003,0.169998 -0.071999,0.656998 -0.235001,0.52c0.208,0.593998 -0.304001,1.615997 -0.044998,2.469997l-0.037003,-0.211998c-0.236,0.879997 -0.029999,1.612 -0.260002,2.505001c-0.032997,-0.093002 -0.049995,-0.260002 -0.134995,-0.292c-0.192001,0.345001 0.32,0.822998 -0.120003,1.027c-0.014999,0.197998 0.199997,0.159996 0.196999,0.036995c0.095001,1.770004 -1.492996,4.858002 -0.653999,5.578003c0.016998,1.484001 -0.685997,0.217003 -0.165001,1.294998c-0.062996,0.108002 0.169998,0.038002 0.088005,0.07c0.195,0.395004 -0.333,0.798004 -0.07,1.060005c0.236,-0.166 0.174995,0.181999 0.331993,0.167c-0.059998,1.219994 -0.149994,0.737 -0.114998,2.265999l-0.114998,-0.092003c0.306,0.900002 -1.174004,2.262001 -1.025002,2.753998c-2.917,3.618004 -6.169998,6.855003 -10.169998,9.501999c-1.32,0.578003 -1.103004,1.030006 -3.562004,1.725006c-2.126999,0.076996 -2.445,-0.190002 -3.769997,-0.267006c-1.205002,-0.154999 -1.730003,-0.079994 -3.75,-0.5c-0.949997,-0.399994 -2.123001,-0.893997 -3.092003,-1.419998c-0.809998,-0.765999 -0.864998,-0.767998 -2.001999,-1.139999c0.067001,-0.032997 0.138,-0.014999 0.090004,-0.097c-0.176003,0.243004 -0.744003,-0.318001 -0.962006,-0.110001c-2.360001,-0.997002 -2.961998,-2.965996 -3.944,-4.167999c0.170006,0.209999 0.447006,0.194 0.260002,-0.065002l-0.339996,-0.179993l0.042,-0.090004c-0.153999,-0.162003 -0.404999,-0.283997 -0.364006,-0.042999c-2.341995,-3.034004 -4.779999,-8.024002 -5.528,-11.239998c-0.337997,-0.730003 -1.591995,-2.158005 -2.046997,-3.095001c-0.849998,-3.645 -1.162003,-6.560001 -1,-9.995003c0.003998,0.003002 0.713997,0.454002 0.847,1.827l-0.000999,0.001003z"/>
   </g>
  </g>
 </g>
</svg>
