<?xml version="1.0" encoding="utf-8"?>
<!-- Generator: Adobe Illustrator 13.0.0, SVG Export Plug-In . SVG Version: 6.00 Build 14948)  -->
<!DOCTYPE svg PUBLIC "-//W3C//DTD SVG 1.1//EN" "http://www.w3.org/Graphics/SVG/1.1/DTD/svg11.dtd">
<svg version="1.1" xmlns="http://www.w3.org/2000/svg" xmlns:xlink="http://www.w3.org/1999/xlink" x="0px" y="0px"
	 width="359.915px" height="139.721px" viewBox="0 0 359.915 139.721" enable-background="new 0 0 359.915 139.721"
	 xml:space="preserve">
<g id="Боковая_панель">
	<rect x="60.057" y="30.229" fill-rule="evenodd" clip-rule="evenodd" width="299.857" height="65.126"/>
	<g>
		<text transform="matrix(1 0 0 1 119.1328 69.4634)"><tspan x="0" y="0" fill="#ED2024" font-family="'ProximaNova-Bold'" font-size="45">MOS</tspan><tspan x="99.899" y="0" fill="#FFFFFF" font-family="'ProximaNova-Bold'" font-size="45">RINGS</tspan></text>
		<text transform="matrix(1 0 0 1 119.9043 87.9551)" fill="#FFFFFF" font-family="'ProximaNova-Bold'" font-size="19.7">Твое московское кольцо</text>
	</g>
	<g>
		
			<polyline display="none" fill-rule="evenodd" clip-rule="evenodd" fill="none" stroke="#AF1F24" stroke-width="0.9602" stroke-linecap="square" stroke-miterlimit="10" points="
			0.866,55.41 0.961,52.337 1.058,50.897 1.633,49.265 2.977,46.769 3.745,45.232 4.417,43.984 5.665,41.295 5.953,39.279 
			6.337,37.07 6.913,34.478 7.585,30.925 7.297,28.716 6.625,26.316 6.913,24.684 7.393,22.571 7.777,21.323 9.121,18.442 
			10.944,16.33 12.672,15.178 15.456,13.641 17.28,12.585 19.68,11.529 22.367,11.241 25.439,10.569 28.319,9.32 31.486,7.112 
			33.502,5.864 34.654,5.095 37.63,3.079 40.605,1.735 44.349,1.063 47.517,0.678 50.013,0.486 53.756,1.735 58.46,4.039 
			65.083,6.344 69.594,7.016 74.586,7.496 77.753,7.976 79.674,8.936 83.801,12.585 90.329,19.019 99.064,27.276 104.151,32.173 
			107.511,35.63 108.567,37.646 109.143,45.04 109.623,53.97 109.718,60.019 109.239,69.622 108.758,76.919 108.375,81.432 
			106.359,87.961 106.071,89.306 106.263,92.474 107.415,98.716 107.895,101.789 108.183,104.669 107.415,107.07 102.904,112.447 
			96.856,119.072 88.889,126.273 82.169,131.555 77.562,134.627 73.05,137.316 70.554,138.853 68.154,139.236 64.987,138.853 
			60.092,138.276 54.428,137.7 51.26,137.316 45.789,135.107 38.59,131.843 32.446,128.962 31.198,127.906 27.455,122.433 
			22.751,115.039 19.008,109.182 15.936,104.093 14.304,101.404 12.096,95.835 11.136,93.435 9.889,89.114 5.569,82.968 
			4.033,79.992 2.593,74.422 2.209,72.886 1.153,69.237 0.481,66.357 0.578,62.324 0.673,58.675 0.866,55.41 		"/>
	</g>
</g>
<g id="Layer_5">
	<path fill="none" stroke="#2E409A" d="M117.805,54.977"/>
	<g>
		<g>
			<g>
				<path fill="none" d="M108.743,69.412c-4.787,7.94-15.087,10.671-23.013,6.106c-6.34-3.651-8.428-11.692-4.706-17.9
					c2.977-4.967,9.42-6.516,14.348-3.401c3.942,2.492,5.134,7.831,2.631,11.966c-2.002,3.308-6.23,4.439-9.464,2.552
					c-2.586-1.511-3.414-4.842-1.855-7.428c1.246-2.07,3.92-2.752,5.971-1.52"/>
				<g>
					<path fill="#FFFFFF" d="M109.007,69.867c0.18-0.342-0.32,0.046,0.064-0.256C109.132,69.707,109.155,69.81,109.007,69.867z"/>
					<path fill="#FFFFFF" d="M91.553,59.042c-1.267,0.25-3.039,0.035-3.87,1.307c-0.085,0.136-0.219-0.314-0.407,0.023
						c-0.685,1.184-1.426,2.935-1.622,4.69l-0.111-0.086c-0.086,0.357,0.32,0.657,0.458,0.953c-0.065,0.025-0.141-0.067-0.2,0.036
						c0.237,0.009,0.353,0.526,0.557,0.585c-0.018,0.156-0.174,0.222-0.179,0.429l0.294,0.055c0.594,0.218,0.811,0.97,1.509,1.272
						c-0.06,0.022-0.14,0.009-0.131,0.09c0.981,0.583,2.335,0.969,3.529,1.003c-0.054,0.084-0.116,0.237-0.051,0.335
						c0.087-0.252,0.462-0.308,0.78-0.35c0.165,0.291,0.529-0.26,0.901-0.19l-0.022,0.062c0.218-0.315,0.439,0.085,0.582-0.271
						l0.22,0.146c0.002-0.395,0.435,0.041,0.593-0.218l-0.034-0.067c0.165-0.157,0.343-0.025,0.506-0.152l0.035,0.029
						c0.354-0.328,0.693-0.293,0.531-0.533c0.264,0.11-0.333,0.326,0.06,0.481c1.208-1.06,2.322-2.232,2.88-3.736
						c0.185-0.116,0.268-0.208,0.388-0.206c0.038-0.158,0.117-0.603,0.023-0.779c-0.007,0.054,0.168-0.058,0.203-0.138
						c0.18-0.26-0.228-0.381-0.022-0.657c0.043,0.136,0.124,0.198,0.239,0.178c-0.127-0.308-0.056-0.658-0.121-0.987
						c0.045,0.054,0.069,0.134,0.16,0.132c-0.231-0.374,0.095-0.642-0.046-0.957l0.159,0.117c0.219-0.505-0.305-0.146-0.225-0.571
						c0.065,0.099,0.126,0.061,0.196,0.076c-0.352-0.384-0.331-1.018-0.479-1.39l0.069,0.003c-0.121-0.406-0.204-0.856-0.46-1.26
						c0.016-0.189,0.398-0.089,0.196-0.511c-0.299,0.146-0.5-0.624-0.709-0.222c-0.142-0.342-0.292-0.968-0.556-1.092
						c0.216,0.06,0.209-0.383,0.444-0.147l0.002-0.312c0.135-0.051,0.132,0.229,0.22,0.067c-0.124-0.126-0.548-0.426-0.603-0.576
						c-0.381-0.093-0.775-0.1-1.187-0.344c0.267,0.044,0.145-0.354,0.306-0.3l-0.938,0.075c-0.13-0.083,0.132-0.23-0.098-0.301
						c-0.042,0.079-0.151,0.063-0.245,0.081c-0.005-0.097-0.569-0.281-0.479-0.581c-0.001-0.143,0.269,0.058,0.168-0.123
						c-0.27-0.131-0.336-0.038-0.604-0.165l0.015-0.042c-0.156-0.132-0.574-0.13-0.462,0.129c0.115,0.068,0.039-0.202,0.175-0.026
						c-0.205,0.111-0.52,0.013-0.773-0.113c0.105-0.005,0.127-0.092,0.198-0.16c-0.437,0.043-0.873,0.094-1.295,0.069
						c-0.048,0.149,0.226-0.235,0.266-0.139c-0.489-0.327-1.129-0.052-1.536-0.335c0.077-0.023,0.013,0.223,0.013,0.179
						c-0.254-0.033-0.223-0.259-0.4-0.186c-0.008-0.133-0.219,0.03-0.393,0.06c-0.093,0.09-0.044-0.068,0.109-0.073
						c-0.261,0.048-1.192,0.266-1.762,0.209c0.021,0.086-0.285,0.364-0.407,0.37l0.01-0.208c-0.139-0.104-0.419,0.068-0.479-0.093
						c-0.223,0.273,1.012-0.349,0.679-0.114c-0.13-0.155-0.451,0.39-0.427,0.104c-0.264,0.018-0.426,0.363-0.711,0.248
						c0.075,0.009,0.121-0.344-0.076-0.26c-0.344,0.158-0.073,0.129-0.336,0.292l-0.148,0.14c0.058,0.192-0.318,0.08-0.11,0.245
						c-0.104-0.138-0.454,0.259-0.555-0.056l-0.058-0.255c-0.149,0.067-0.118,0.376-0.175,0.534l-0.1-0.078
						c0.162,0.369-0.342,0.163-0.351,0.525c-0.348,0.051-0.728,0.385-0.991,0.286c-0.119,0.271-0.195,0.532-0.463,0.656
						c0.018-0.066,0.068-0.127,0.025-0.204c-0.213,0.032-0.179,0.143-0.258,0.3c-0.011-0.069-0.433,0.069-0.694,0.112
						c-0.109,0.254,0.118,0.341,0.195,0.448c-0.442-0.081-0.223,0.729-0.675,0.731c0.007-0.101,0.069-0.417-0.138-0.306
						c-0.46-0.042-0.051,0.555-0.431,0.745l0.331,0.105c-0.284,0.014-0.148,0.539-0.403,0.346c0.05,0.173-0.283,0.354,0.016,0.468
						c-0.502,0.444-0.478,1.402-1.183,1.551c0.025,0.104-0.075,0.308,0.091,0.313c0.204-0.087-0.075-0.244,0.056-0.258
						c-0.012,0.081,0.069,0.126,0.108,0.148c-0.112,0.163-0.17,0.308-0.381,0.046c-0.292,0.375,0.418,0.594,0.172,1.082
						c-0.123-0.054-0.181-0.025-0.198,0.135l0.151,0.338c-0.135,0.328-0.345,0.142-0.567,0.11c-0.001,0.195-0.089,0.422,0.084,0.532
						l-0.287,0.201c0.208-0.15,0.129,0.174,0.181,0.269l-0.051-0.095c-0.097,0.026-0.045,0.257-0.021,0.372
						c0.14-0.019,0.204-0.239,0.248-0.357c0.095,0.106,0.067,0.254,0.179,0.389c-0.218-0.058-0.167,0.298-0.195,0.447
						c-0.054,0.172,0.189,0.198,0.181,0.247c-0.114,0.004-0.031,0.279-0.185,0.146c-0.035-0.059,0.116-0.134,0.019-0.232
						c-0.089,0.112-0.287,0.1-0.151,0.339c0.102,0.177,0.437-0.053,0.283,0.283l-0.214-0.166l-0.127,0.323l0.2,0.003l-0.096,0.038
						c0.19,0.083,0.135,0.474,0.374,0.521c0.047,0.151-0.084,0.342-0.083,0.496l-0.022-0.027c-0.087,0.2,0.029,0.436,0.186,0.562
						l-0.044,0c0,0.102,0.068,0.333,0.202,0.43c-0.107,0.283-0.727,0.263-0.429,0.486c0.101,0.25,0.498,0.286,0.584,0.152
						c0.035,0.477,0.521,0.849,0.378,1.367c0.097,0.031,0.13-0.029,0.22,0.08c0.137,0.688,0.907,1.098,0.817,1.785
						c-0.173-0.123-0.176,0.098-0.268,0.165c0.235,0.042-0.05,0.277,0.235,0.154c0.141-0.117,0.221-0.153,0.184-0.356
						c0.259,0.311,0.619,0.784,0.671,1.033c-0.012-0.135,0.09-0.106,0.191-0.078c-0.242,0.163-0.068,0.413,0.161,0.51l0.151-0.096
						l-0.033,0.23c0.1,0.026,0.331-0.186,0.358,0.094l-0.089,0.181c0.269,0.063,0.624,0.145,0.723,0.404l0.001,0.313
						c0.107,0.042,0.352,0.026,0.245-0.14c0.25,0.366,0.464,0.544,0.447,0.806c0.879,0.06,1.802,0.506,2.608,0.856l-0.078,0.109
						c0.164,0.208,0.204-0.161,0.314-0.011c-0.119,0.084,0.056,0.325-0.174,0.39c0.258,0.269,0.487-0.031,0.704,0.002
						c0.092-0.148-0.199,0.031-0.081-0.156c0.054-0.043,0.373,0.317,0.506,0.092c0.042,0.131-0.08,0.287-0.158,0.368l0.229-0.035
						c0.138,0.397-0.711,0.275-0.593,0.741l0.195,0.044c0.088,0.338-0.592,0.071-0.157,0.369c0.246-0.025,0.535-0.325,0.394-0.505
						c0.451,0.05,0.39-0.544,0.833-0.42c0.082,0.175-0.373-0.043-0.348,0.181c0.157,0.25,0.466-0.018,0.636,0.095
						c-0.187-0.142,0.062-0.357,0.207-0.375c0.197,0.17-0.21,0.207,0.108,0.306c0.091-0.135,0.409-0.18,0.179-0.339
						c0.191-0.309,0.311,0.167,0.538-0.054c0.06,0.261-0.445,0.471-0.109,0.669c-0.01-0.24,0.498-0.21,0.372-0.591
						c0.123,0.096,0.109,0.28-0.017,0.397c0.179,0.187,0.543-0.309,0.542,0.162l0.1-0.219l0.221,0.306
						c0.183,0.008,0.608-0.31,0.563,0.047c0.062-0.036,0.472-0.011,0.328-0.261c-0.241-0.156-0.306,0.174-0.417-0.163
						c0.155,0.276,0.366-0.029,0.512-0.117l0.016,0.139c0.089-0.053,0.286-0.018,0.344-0.167c-0.068,0.078-0.038,0.173,0.03,0.208
						l0.095-0.209c0.347-0.097,0.076,0.373,0.419,0.32l-0.263,0.157c0.058-0.034,0.176,0.167,0.343,0.105
						c0.063-0.19,0.178-0.418,0.228-0.566c0.187-0.079,0.093,0.22,0.272,0.028l-0.238,0.225c-0.037,0.062,0.178,0.323,0.442,0.325
						c0.167-0.057,0.399-0.337,0.134-0.444c0.128,0.012,0.314,0.071,0.225,0.237c0.285-0.118-0.054-0.2,0.183-0.363
						c0.111,0.11,0.448,0.237,0.668,0.389l-0.228,0.365l0.18-0.027c-0.203,0.295,0.145,0.174,0.045,0.467
						c0.132,0.021,0.273-0.097,0.384-0.188c-0.423-0.371,0.313-0.657,0.138-1.03c0.448-0.184,0.485,0.899,0.865,0.207
						c-0.104-0.088,0.064-0.421-0.21-0.26c0.306-0.006,0.111-0.421,0.492-0.316c-0.219,0.2,0.378,0.346,0.058,0.637
						c-0.006-0.131-0.236-0.063-0.286-0.018c0.159,0.128,0.062,0.395,0.378,0.343c0.188-0.053,0.441-0.138,0.347-0.336
						c-0.063-0.204-0.275,0.103-0.215-0.148c0.337-0.191,0.493,0.105,0.525-0.333c-0.214,0.115-0.334-0.09-0.372-0.243l0.225-0.186
						l-0.005,0.163c0.439-0.048,0.039-0.307,0.44-0.414l0.281,0.214c-0.012,0.279-0.612,0.106-0.415,0.479
						c0.269-0.083,0.287-0.316,0.568-0.304l-0.157,0.147c0.096-0.021,0.381,0.466,0.65,0.021c0.15-0.19-0.002-0.157-0.054-0.306
						c0.404-0.198,0.465-0.39,0.722-0.509c0.071,0.299,0.49-0.145,0.323,0.247c-0.216-0.112-0.81,0.122-0.854,0.449
						c0.289,0.28-0.354,0.075-0.318,0.454c0.351-0.12,0.464,0.219,0.607,0.415c0.107-0.021,0.167-0.149,0.212-0.205
						c-0.042-0.218-0.17-0.168-0.263-0.376c0.412-0.091,0.748-0.331,0.858-0.616c0.163,0.025,0.228,0.251,0.09,0.347
						c0.401-0.307,0.861-0.56,1.302-0.744c-0.443-0.153,0.405-0.341,0.071-0.489c-0.256,0.059-0.563-0.055-0.531-0.262
						c0.14-0.058,0.076,0.138,0.169,0.171c0.063-0.266,0.424,0.112,0.424-0.248c-0.314,0.323,0.159,0.415,0.24,0.694
						c0.198-0.303,0.095,0.177,0.377,0.007c0.192-0.312,0.489-0.587,0.731-0.864c0.501-0.096,0.861-0.773,1.151-1.048
						c0.255-0.038,0.363,0.293,0.577,0.175c0.202-0.19-0.389-0.111,0.016-0.28l0.015,0.072c0.039-0.133,0.717-0.354,0.473-0.747
						l0.157,0.32c0.081-0.03,0.076-0.131,0.096-0.199c0.085,0.075,0.227,0.083,0.188,0.218c0.364-0.016,0.306-0.452,0.471-0.672
						l-0.262,0.011c0.158-0.48,0.503-0.604,0.721-1.015l0.152,0.13l0.067-0.29c0.117,0.168,0.371,0.035,0.325-0.173l-0.037,0.866
						c-0.215,0.091-0.06-0.322-0.294-0.337c-0.202-0.018-0.411,0.354-0.303,0.531c0.116-0.118,0.086-0.152,0.105-0.298
						c0.253,0.125,0.094,0.321,0.163,0.538c0.044-0.078,0.186-0.126,0.127-0.195c0.003,0.222-0.086,0.377-0.256,0.614
						c0.034-0.227-0.196-0.025-0.212-0.136c0.174,0.175,0.063,0.448-0.204,0.691c-0.377-0.004-0.362,0.582-0.728,0.815
						c-0.046-0.292-0.03-0.574,0.081-0.809c-0.278,0.084-0.206,0.195-0.483,0.277c0.038,0.214,0.169,0.477-0.009,0.789l-0.138-0.122
						c-0.164,0.274,0.015,0.478-0.315,0.704c-0.558,0.395-1.071,0.861-1.555,1.071l-0.119-0.141
						c-0.028,0.472-0.738,0.613-0.981,0.96c-0.65,0.179-1.146,0.923-1.619,0.709c-1.038,0.493-1.937,1.105-3.143,1.284l0.138-0.292
						c-0.166,0.226-0.173-0.125-0.37-0.052c0.286,0.166-0.227,0.317-0.345,0.501c-0.573-0.113-1.212,0.223-1.678,0.486l-0.037-0.179
						c-0.448,0.464-1.068,0.115-1.669,0.049c-0.071-0.077-0.179-0.251-0.357-0.235c-0.332,0.288-0.504,0.263-1.003,0.434
						c-0.356-0.024-0.936-0.058-1.265-0.292c-1.352,0.042-2.732-0.259-4.062-0.704l-0.014-0.241c-1.455-0.093-2.791-1.201-3.833-1.8
						l0.312-0.227c-0.227-0.302-0.735-0.413-0.827-0.159c-0.251-0.278-0.838-0.472-0.786-0.874
						c-0.212-0.326-0.439-0.222-0.695-0.427c-0.399-0.681-0.686-0.807-1.127-1.388l0.077,0.167c0.107,0.02,0.235-0.068,0.161-0.233
						c-0.226-0.169-0.436-0.895-0.662-0.427c-0.17-0.799-1.201-1.443-1.089-2.334c-0.088,0.106-0.176-0.064-0.279-0.111
						c-0.238-0.657-0.286-1.394-0.615-1.87c0.04-0.122,0.226,0.121,0.192-0.156c-0.072-0.152-0.152,0.034-0.251-0.153
						c-0.37-1.079-0.235-2.265-0.167-3.258c-0.265-1.806,0.278-3.691,0.873-5.291l0.074,0.05c-0.062-0.667,0.878-1.071,0.629-1.72
						c0.132-0.084,0.262-0.454,0.364-0.275c0.057-0.523,0.948-0.928,1.115-1.653l-0.067,0.167c0.519-0.45,0.829-0.99,1.479-1.353
						c-0.03,0.077-0.111,0.185-0.068,0.265c0.311-0.051,0.255-0.72,0.632-0.488c0.116-0.106-0.044-0.243-0.11-0.169
						c1.331-0.83,2.718-1.762,4.32-2.313c1.224,0.073,0.211,0.687,1.062,0.246c0.086,0.071,0.03-0.167,0.055-0.082
						c0.342-0.167,0.594,0.396,0.809,0.145c-0.119-0.246,0.15-0.167,0.148-0.325c0.72,0.125,0.841,0.425,1.402,0.242l-0.05,0.134
						c0.683-0.375,1.403-0.081,2.038-0.328c3.549,0.708,7.117,3.206,8.176,7.021c1.033,3.629,0.252,7.769-2.734,10.472
						c-0.93,0.356-0.917,0.408-1.708,1.04c0.005-0.071,0.05-0.115-0.034-0.127c0.106,0.28-0.582,0.385-0.543,0.677
						c-1.363,0.496-2.669,0.986-4.211,0.861c0.245-0.025,0.363-0.264,0.085-0.251l-0.305,0.18l-0.042-0.085
						c-0.194,0.038-0.427,0.173-0.233,0.276c-4.031-0.023-7.336-4.375-6.71-8.219c0.293-0.856,0.61-2.135,1.054-3.05
						c2.13-2.426,5.257-2.804,7.948-1.554C93.31,58.692,92.543,59.194,91.553,59.042z"/>
					<path fill="#FFFFFF" d="M108.753,70.258c-0.173-0.014-0.4,0.155-0.435-0.125C108.448,70.189,108.66,70.164,108.753,70.258z"/>
					<path fill="#FFFFFF" d="M102.804,74.053c0.016,0.042-0.114-0.001-0.145-0.011c0.064-0.052,0.062-0.195,0.159-0.164
						C102.753,73.93,102.802,73.982,102.804,74.053z"/>
					<path fill="#FFFFFF" d="M101.308,74.852c-0.037-0.131,0.22-0.409,0.392-0.531L101.308,74.852z"/>
					<path fill="#FFFFFF" d="M99.662,74.956c-0.163-0.058-0.15-0.127,0.015-0.184C99.715,74.832,99.673,74.884,99.662,74.956z"/>
					<path fill="#FFFFFF" d="M99.668,75.272c-0.12,0.048-0.207-0.002-0.291-0.052C99.42,75.324,99.629,75.052,99.668,75.272z"/>
					<path fill="#FFFFFF" d="M96.369,75.758c-0.075,0.023-0.23,0.16-0.322,0.028C96.143,75.873,96.4,75.557,96.369,75.758z"/>
					<path fill="#FFFFFF" d="M94.872,76.166l-0.128,0C94.65,76.103,94.742,76.01,94.817,76L94.872,76.166z"/>
					<polygon fill="#FFFFFF" points="82.257,57.619 82.211,57.788 82.117,57.696 					"/>
					<path fill="#FFFFFF" d="M93.078,54.174c0.184-0.019,0.06,0.163,0.079,0.189C93.018,54.313,93.267,54.229,93.078,54.174z"/>
					<polygon fill="#FFFFFF" points="98.319,58.207 98.3,58.156 98.554,58.068 					"/>
				</g>
			</g>
		</g>
		<g>
			<g>
				<g>
					<polyline fill="none" points="70.422,57.492 70.457,56.374 70.492,55.849 70.702,55.254 71.191,54.345 71.471,53.786 
						71.715,53.331 72.17,52.352 72.275,51.617 72.415,50.813 72.625,49.869 72.869,48.575 72.764,47.771 72.52,46.896 
						72.625,46.302 72.799,45.533 72.939,45.078 73.428,44.029 74.093,43.259 74.722,42.84 75.736,42.28 76.4,41.896 77.274,41.511 
						78.253,41.406 79.372,41.161 80.42,40.707 81.574,39.902 82.309,39.448 82.728,39.168 83.812,38.434 84.895,37.944 
						86.258,37.7 87.412,37.56 88.321,37.49 89.685,37.944 91.397,38.784 93.81,39.623 95.453,39.868 97.271,40.042 98.424,40.217 
						99.124,40.567 100.626,41.896 103.004,44.239 106.185,47.247 108.038,49.029 109.261,50.288 109.646,51.023 109.855,53.715 
						110.03,56.968 110.065,59.171 109.891,62.667 109.716,65.326 109.576,66.969 108.842,69.347 108.737,69.837 108.807,70.991 
						109.227,73.264 109.401,74.383 109.506,75.432 109.227,76.306 107.583,78.264 105.381,80.677 102.479,83.3 100.032,85.223 
						98.354,86.342 96.711,87.321 95.802,87.881 94.928,88.021 93.775,87.881 91.992,87.671 89.929,87.462 88.775,87.321 
						86.783,86.517 84.161,85.328 81.923,84.279 81.469,83.895 80.105,81.901 78.393,79.208 77.03,77.076 75.911,75.222 
						75.316,74.243 74.512,72.215 74.163,71.34 73.708,69.767 72.135,67.529 71.576,66.445 71.051,64.417 70.912,63.857 
						70.527,62.528 70.282,61.479 70.317,60.01 70.352,58.681 70.422,57.492 					"/>
					<g>
						<path fill="#FFFFFF" d="M69.947,57.13c0.043,0.533,0.239-0.279,0.091,0.35C69.934,57.405,69.857,57.3,69.947,57.13z"/>
						<path fill="#FFFFFF" d="M70,59.247c0.395,1.727,0.334,3.986,1.287,5.705c0.083,0.206-0.378,0.04-0.167,0.497
							c0.568,1.798,2.956,3.723,2.765,6.242l-0.148-0.085c0.085,0.42,0.603,0.766,0.721,1.2c-0.064,0.029-0.146-0.096-0.199,0.036
							c0.24,0.026,0.39,0.714,0.607,0.832c-0.012,0.194-0.175,0.241-0.179,0.487l0.32,0.148c0.893,0.41,0.87,1.524,1.631,2.224
							c-0.072-0.011-0.16-0.071-0.167,0.023c1.107,1.152,2.121,2.808,3.157,4.215c-0.109-0.013-0.275,0.017-0.302,0.154
							c0.261-0.064,0.604,0.355,0.896,0.722c-0.114,0.313,0.645,0.523,0.83,1.055l-0.074-0.007c0.455,0.179,0.208,0.584,0.665,0.669
							l-0.024,0.329c0.249-0.272,0.307,0.594,0.624,0.476l0.022-0.073c0.323,0.052,0.393,0.29,0.685,0.357l0.007,0.05
							c0.661,0.204,0.934,0.558,1.041,0.29c0.12,0.312-0.646-0.186-0.447,0.279c2.173,0.566,4.236,1.968,6.396,2.172
							c0.235,0.141,0.401,0.193,0.446,0.308c0.231-0.036,0.854,0.033,1.074-0.093c-0.077-0.001,0.13,0.162,0.249,0.188
							c0.397,0.148,0.485-0.265,0.919-0.085c-0.188,0.055-0.26,0.14-0.212,0.254c0.41-0.178,0.917-0.083,1.381-0.101
							c-0.077,0.04-0.189,0.056-0.183,0.147c0.514-0.198,0.928,0.17,1.321,0.047c0,0.065-0.104,0.102-0.152,0.153
							c0.762,0.161,0.16-0.356,0.788-0.318c-0.136,0.075-0.075,0.131-0.09,0.203c0.422-0.323,1.189-0.894,1.647-1.216l0.014,0.071
							c0.517-0.356,1.113-0.58,1.599-1.08c0.247-0.076,0.158,0.382,0.668-0.031c-0.205-0.265,0.847-0.73,0.317-0.831
							c0.418-0.253,1.23-0.736,1.44-1.044c-0.119,0.254,0.466,0.152,0.118,0.461l0.401-0.057c0.043,0.139-0.313,0.187-0.118,0.253
							c0.174-0.155,0.625-0.677,0.822-0.763c0.24-0.432,0.236-0.988,0.738-1.485c-0.156,0.317,0.385,0.148,0.258,0.34l0.294-1.126
							c0.161-0.167,0.213,0.161,0.404-0.128c-0.071-0.054,0-0.193,0.027-0.314c0.092-0.03,0.661-0.709,0.957-0.532
							c0.162,0.025-0.235,0.304,0.035,0.219c0.291-0.266,0.217-0.394,0.503-0.703l0.038,0.023c0.227-0.175,0.459-0.71,0.118-0.606
							c-0.14,0.139,0.196,0.078-0.071,0.229c-0.006-0.276,0.29-0.68,0.577-0.999c-0.06,0.143,0.017,0.189,0.046,0.295
							c0.211-0.628,0.537-1.063,0.862-1.638c-0.113-0.108,0.064,0.367-0.061,0.387c0.697-0.492,0.859-1.502,1.543-1.824
							c-0.051,0.104-0.209-0.097-0.17-0.075c-0.155,0.262,0.268-0.11,0.202-0.241c0.144-0.257,0.078,0.044-0.035-0.268
							c-0.109-0.128,0.058-0.075,0.095,0.154c-0.131-0.364-0.508-1.736-0.495-2.603c-0.083,0.033-0.413-0.459-0.439-0.655
							l0.216,0.038c0.088-0.199-0.137-0.646,0.03-0.711c-0.322-0.369,0.503,1.557,0.211,1.032c0.142-0.177-0.467-0.721-0.168-0.652
							c-0.066-0.28-0.41-0.873-0.218-1.244c-0.027,0.111,0.304,0.303,0.27-0.015c-0.071-0.56-0.108-0.154-0.204-0.606
							c-0.048-0.043-0.019-0.612-0.039-0.513c-0.222,0.051,0.181-0.669-0.131-0.329c0.219-0.201,0.155-0.863,0.465-0.751
							l0.227,0.152c0.053-0.238-0.146-0.462-0.2-0.679c0.032-0.024,0.101-0.069,0.138-0.045c-0.371-0.156,0.204-0.546-0.007-0.914
							c0.216-0.001,0.133-1.154,0.409-1.263c-0.084-0.407-0.21-0.732-0.094-1.19c0.032,0.092,0.036,0.214,0.12,0.245
							c0.136-0.272,0.035-0.349-0.013-0.609c0.056,0.062,0.271-0.546,0.433-0.848c-0.094-0.397-0.318-0.277-0.447-0.325
							c0.423-0.335-0.198-1.085,0.186-1.524c0.047,0.138,0.166,0.579,0.281,0.259c0.412-0.336-0.254-0.732-0.037-1.297l-0.334,0.125
							c0.215-0.246-0.148-0.855,0.183-0.78c-0.109-0.165,0.145-0.748-0.183-0.548c0.25-0.987-0.183-2.238,0.339-2.854
							c-0.061-0.132-0.024-0.473-0.185-0.395c-0.166,0.234,0.145,0.307,0.028,0.397c-0.016-0.121-0.105-0.143-0.15-0.153
							c0.057-0.297,0.067-0.528,0.348-0.266c0.163-0.663-0.58-0.644-0.499-1.481c0.134,0.031,0.18-0.035,0.146-0.277
							c-0.083-0.137-0.167-0.327-0.251-0.42c0.011-0.54,0.277-0.328,0.499-0.358c-0.061-0.284-0.078-0.634-0.254-0.752l0.253-0.37
							c-0.183,0.27-0.153-0.225-0.218-0.355l0.064,0.13c0.092-0.06,0.007-0.387-0.034-0.553c-0.135,0.051-0.165,0.394-0.191,0.581
							c-0.109-0.138-0.104-0.368-0.235-0.553c0.129-0.274,0.282-0.049,0.106-0.316c-0.08-0.254-0.312-0.17-0.341-0.241
							c0.083-0.133,0.102,0.124,0.194-0.05c0.142,0.085-0.289-0.189,0.016,0.085c-0.13-0.333,0.365-0.092-0.035-0.289
							c-0.266-0.117-0.263,0.352-0.52-0.111c0.132,0.058,0.213,0.015,0.342,0.035l-0.252-0.424l-0.158,0.125
							c-0.009-0.082,0.035-0.063,0.034-0.102c-0.239,0.057-0.584-0.509-0.776-0.363c-0.189-0.152-0.271-0.454-0.421-0.63
							l0.044,0.019c-0.122-0.281-0.446-0.485-0.71-0.552l0.04-0.023c-0.1-0.118-0.385-0.348-0.606-0.397
							c-0.176-0.378,0.438-0.628-0.053-0.747c-0.292-0.266-0.702-0.159-0.675,0.044c-0.423-0.586-1.234-0.903-1.499-1.582
							c-0.13-0.012-0.118,0.07-0.304-0.041c-0.705-0.762-1.786-1.394-2.085-2.241c0.274,0.152,0.156-0.129,0.231-0.214
							c-0.304-0.047-0.083-0.343-0.363-0.187c-0.109,0.146-0.189,0.191-0.031,0.45c-0.558-0.41-1.116-0.978-1.287-1.331
							c0.074,0.177-0.063,0.13-0.201,0.081c0.225-0.187-0.09-0.523-0.418-0.677l-0.153,0.1l-0.049-0.286
							c-0.021,0.053-0.614-0.043-0.241,0.047l-0.007-0.214c-0.477-0.117-0.178,0.288-0.894-0.003l-0.277-0.302
							c-0.047,0.014-0.429,0.14-0.117,0.242c-0.647-0.218-1.072-0.278-1.261-0.52c-1.093,0.533-3.218,0.054-4.407-0.499l0.081-0.111
							c-0.298-0.234-0.252,0.156-0.458-0.012c0.15-0.081-0.167-0.348,0.148-0.4c-0.653-0.41-0.764-0.102-1.146-0.208
							c-0.122,0.133,0.29,0.019,0.135,0.188c-0.079,0.03-0.577-0.434-0.763-0.233c-0.07-0.149,0.104-0.278,0.213-0.343l-0.337-0.023
							c-0.209-0.443,1.023-0.107,0.828-0.623l-0.276-0.09c-0.127-0.367,0.82,0.058,0.212-0.345
							c-0.339-0.022-0.747,0.201-0.547,0.428c-0.465-0.11-0.435,0.504-1.055,0.267c-0.133-0.207,0.545,0.143,0.485-0.104
							c-0.247-0.305-0.667-0.098-0.923-0.262c0.533,0.248-0.635,0.248,0.287,0.452c-0.366-0.096,0.213-0.265-0.294-0.253
							c-0.071,0.157-0.527,0.306-0.118,0.38c-0.219,0.358-0.449-0.061-0.709,0.242c-0.193-0.22,0.45-0.616-0.117-0.668
							c0.116,0.22-0.643,0.396-0.31,0.701c-0.224-0.039-0.269-0.218-0.129-0.378c-0.188-0.135-0.629,0.537-0.779,0.091l-0.063,0.252
							l-0.437-0.189c-0.375,0.017-0.112,0.445-0.522,0.168c-0.065,0.07-0.643,0.313-0.32,0.439c0.417-0.022,0.334-0.349,0.67-0.133
							c-0.247-0.201-0.761,0.41-0.401,0.294l-0.108-0.094c-0.08,0.12-0.353,0.268-0.338,0.439c0.041-0.123-0.057-0.171-0.164-0.14
							l0.001,0.254c-0.395,0.394-0.307-0.239-0.726,0.117l0.249-0.365c-0.049,0.075-0.32,0.021-0.494,0.216
							c0.069,0.186-0.058,0.549-0.044,0.713c-0.209,0.229-0.228-0.114-0.374,0.208l0.206-0.4c0.016-0.084-0.388-0.134-0.725,0.08
							c-0.059,0.119-0.306,0.632,0.109,0.47c-0.162,0.118-0.459,0.182-0.41-0.024c-0.334,0.314,0.168,0.136-0.084,0.458
							c0.027-0.14-1.035,0.317-1.332,0.196c0.155-0.195,0-0.211,0.411-0.553c-0.412,0.224-0.258,0.122-0.415,0.199
							c0.22-0.376-0.242-0.109-0.168-0.438c-0.187,0.035-0.356,0.209-0.493,0.346c0.868,0.124-0.569,0.871-0.318,1.16
							c-0.765,0.264-0.523-0.842-1.423-0.074c0.211,0.078-0.358,0.456,0.425,0.238c-0.793,0.061-0.361,0.445-0.995,0.352
							c0.384-0.206-0.474-0.354,0.081-0.652c-0.024,0.134,0.334,0.064,0.419,0.019c-0.206-0.131-0.004-0.402-0.474-0.352
							c-0.353,0.036-0.168,0.143-0.258,0.346c0.102,0.204,0.394-0.2,0.317,0.085c-0.432,0.275-0.863,0.088-0.636,0.428
							c0.038-0.05,0.419,0.037,0.413,0.211c-0.034,0.046-0.417,0.259-0.164,0.168c0.153-0.137-0.216-0.007-0.171-0.083
							c-0.326,0.076,0.091,0.27-0.493,0.562l-0.414-0.113c0.008-0.292,0.941-0.403,0.605-0.694c-0.37,0.197-0.443,0.482-0.826,0.568
							l0.223-0.218c-0.141,0.062-0.542-0.351-0.918,0.228c-0.042,0.178,0.055,0.142,0.169,0.254
							c-0.641,0.461-0.018,0.17-0.542,0.766c-0.086-0.134-0.219,0.008-0.32,0.113c-0.23,0.308,0.437-0.744-0.13-0.116
							c0.519-0.295,0.561-0.496,0.721-0.872c-0.348-0.216,0.386-0.188,0.356-0.573c-0.52,0.275-0.582-0.096-0.802-0.23
							c-0.136,0.071-0.204,0.235-0.26,0.316c0.068,0.218,0.232,0.105,0.368,0.288c-0.175-0.114-0.881,1.056-0.512,0.903
							c-0.186,0.14-0.357-0.012-0.274-0.241c-0.316,0.815-0.555,1.193-0.727,1.909c0.43-0.323-0.063,0.727,0.294,0.491
							c0.141-0.37,0.451-0.497,0.569-0.314c-0.074,0.221-0.152-0.042-0.248,0.036c0.151-0.068-0.372,0.951-0.141,0.081
							c0.027,0.505-0.401,0.124-0.651,0.218c0.104,0.523-0.283-0.499-0.179,0.226c0.284,0.492,0.593,0.894,0.605,1.816
							c-0.368,0.575-0.342,1.72-0.446,2.234c-0.194,0.284-0.471,0.021-0.583,0.345c-0.061,0.388,0.385-0.219,0.147,0.311
							l-0.056-0.054c0.104,0.102-0.406,1.101-0.128,1.396l-0.236-0.31c-0.075,0.086-0.046,0.212-0.051,0.31
							c-0.104-0.043-0.25,0.03-0.242-0.164c-0.357,0.231-0.303,0.707-0.477,1.058l0.295-0.125c-0.141,0.636-0.583,1.046-0.78,1.544
							c-0.059-0.033-0.148,0.009-0.189-0.063l-0.009,0.385c-0.141-0.151-0.422,0.139-0.24,0.37c-0.146-0.354-0.165-0.692-0.14-1.141
							c0.237-0.192,0.066,0.384,0.323,0.323c0.223-0.051,0.461-0.61,0.338-0.787c-0.129,0.194-0.095,0.224-0.117,0.417
							c-0.281-0.064-0.105-0.369-0.186-0.61c-0.048,0.112-0.204,0.225-0.139,0.289c0.001-0.286,0.083-0.479,0.252-0.841
							c-0.023,0.289,0.219-0.054,0.245,0.072c-0.222-0.126-0.054-0.556,0.18-0.902c0.454-0.344,0.203-0.703,0.298-1.276
							c0.189,0.247,0.421,0.623,0.365,0.901c0.28-0.258,0.079-0.373,0.277-0.692c-0.161-0.194-0.416-0.377-0.447-0.851l0.185,0.006
							c-0.015-0.468-0.269-0.501-0.104-1.022c0.311-0.968,0.45-1.667,0.252-2.234l0.168-0.074c-0.61-0.189-0.288-1.755-0.269-2.036
							c0.278-0.738,0.735-2.319,1.288-2.346c1.322-1.326,2.293-2.101,4.31-2.563l-0.246,0.293c0.271-0.225,0.206,0.132,0.488,0.062
							c-0.289-0.189,0.288-0.289,0.458-0.518c0.722,0.121,1.515-0.486,1.729-0.859l0.125,0.135c0.31-0.658,1.271-0.912,1.894-1.238
							c0.12,0.011,0.332,0.075,0.524-0.08c0.282-0.51,0.219-0.563,1.02-1.161c0.207-0.181,1.461-0.503,1.913-0.402
							c1.581-0.968,4.7-0.342,5.922,0.481l0.025,0.251c1.713,0.28,3.531,1.194,4.987,0.96l-0.182,0.351
							c0.467,0.158,1.098,0.01,1-0.261c0.751,0.28,0.923-0.186,1.874,0.546c0.351,0.216,1.133,0.481,1.235,0.569
							c0.594,0.718,1.018,1.017,1.707,1.619l-0.148-0.178c-0.129-0.014-0.245,0.091-0.097,0.27c0.319,0.17,0.838,0.964,0.899,0.411
							c0.544,0.899,1.763,1.445,2.239,2.353c0.023-0.143,0.215,0.007,0.345,0.019c0.635,0.593,1.132,1.399,1.775,1.727
							c0.063,0.142-0.309-0.011-0.043,0.257c0.183,0.112,0.111-0.11,0.344,0.021c1.241,0.926,1.725,1.852,3.058,3.398
							c1.302,3.161,0.715,4.887,1.04,7.346l-0.088-0.023c0.341,0.771-0.301,1.614,0.184,2.398c-0.092,0.168-0.072,0.656-0.235,0.52
							c0.208,0.593-0.304,1.615-0.045,2.47l-0.037-0.213c-0.236,0.88-0.03,1.612-0.261,2.505c-0.032-0.093-0.048-0.26-0.134-0.292
							c-0.192,0.344,0.319,0.822-0.121,1.026c-0.014,0.198,0.2,0.159,0.198,0.037c0.095,1.769-1.493,4.858-0.654,5.578
							c0.017,1.484-0.686,0.217-0.165,1.295c-0.063,0.108,0.171,0.038,0.088,0.069c0.195,0.396-0.333,0.799-0.071,1.062
							c0.237-0.167,0.176,0.181,0.333,0.166c-0.059,1.219-0.149,0.737-0.115,2.266l-0.115-0.092
							c0.306,0.901-1.174,2.262-1.025,2.754c-2.917,3.618-6.171,6.855-10.169,9.502c-1.32,0.578-1.104,1.031-3.563,1.725
							c-2.128,0.078-2.446-0.189-3.77-0.266c-1.206-0.155-1.731-0.081-3.751-0.5c-0.95-0.401-2.123-0.894-3.092-1.42
							c-0.811-0.766-0.865-0.768-2.002-1.14c0.067-0.033,0.138-0.015,0.091-0.097c-0.177,0.243-0.745-0.318-0.963-0.11
							c-2.361-0.997-2.962-2.966-3.944-4.168c0.171,0.209,0.447,0.194,0.259-0.065l-0.338-0.18l0.041-0.091
							c-0.154-0.161-0.405-0.283-0.364-0.042c-2.342-3.034-4.78-8.024-5.528-11.241c-0.338-0.73-1.592-2.157-2.047-3.094
							c-0.85-3.645-1.162-6.56-1.001-9.995C69.157,57.423,69.867,57.874,70,59.247z"/>
						<path fill="#FFFFFF" d="M69.937,56.49c0.147-0.108,0.258-0.499,0.433-0.179C70.228,56.334,70.068,56.541,69.937,56.49z"/>
						<path fill="#FFFFFF" d="M73.533,46.795c-0.046,0,0.019-0.152,0.034-0.189c0.044,0.115,0.194,0.192,0.147,0.307
							C73.669,46.795,73.607,46.833,73.533,46.795z"/>
						<path fill="#FFFFFF" d="M74.137,45.09c0.044,0.241,0.032,0.418-0.034,0.77C74.108,45.513,74.022,45.54,74.137,45.09z"/>
						<path fill="#FFFFFF" d="M75.569,44.237c-0.118,0.202,0.295,0.012-0.013,0.21C75.501,44.4,75.557,44.321,75.569,44.237z"/>
						<path fill="#FFFFFF" d="M75.452,43.96c0.17-0.098,0.293-0.078,0.413-0.058C75.805,43.807,75.501,44.184,75.452,43.96z"/>
						<path fill="#FFFFFF" d="M80.258,42.646c0.109-0.059,0.311-0.265,0.474-0.176C80.573,42.427,80.247,42.861,80.258,42.646z"/>
						<path fill="#FFFFFF" d="M82.422,41.16c0.07-0.033,0.109-0.029,0.167-0.107c0.152-0.023,0.075,0.137-0.02,0.21L82.422,41.16z"
							/>
						<polygon fill="#FFFFFF" points="108.988,60.923 108.936,60.663 109.064,60.707 						"/>
						<path fill="#FFFFFF" d="M106.246,78.273c-0.112,0.246-0.211,0.049-0.254,0.068C106.138,78.16,106.052,78.514,106.246,78.273z"
							/>
						<polygon fill="#FFFFFF" points="99.117,85.441 99.181,85.395 99.309,85.634 						"/>
					</g>
				</g>
			</g>
		</g>
	</g>
</g>
</svg>
